<?xml version="1.0" encoding="UTF-8"?>
<!DOCTYPE svg PUBLIC "-//W3C//DTD SVG 1.1//EN" "http://www.w3.org/Graphics/SVG/1.1/DTD/svg11.dtd">
<svg xmlns="http://www.w3.org/2000/svg" version="1.1" width="663px" height="740px" style="shape-rendering:geometricPrecision; text-rendering:geometricPrecision; image-rendering:optimizeQuality; fill-rule:evenodd; clip-rule:evenodd" xmlns:xlink="http://www.w3.org/1999/xlink">
<g><path style="opacity:0.997" fill="#ffffff" d="M 246.5,-0.5 C 385.167,-0.5 523.833,-0.5 662.5,-0.5C 662.5,246.167 662.5,492.833 662.5,739.5C 660.167,739.5 657.833,739.5 655.5,739.5C 626.603,737.596 597.603,735.096 568.5,732C 527.554,728.024 490.554,714.024 457.5,690C 433.221,676.129 407.221,667.463 379.5,664C 362.276,662.555 345.276,663.889 328.5,668C 297.683,677.273 267.349,687.939 237.5,700C 200.988,710.273 163.988,712.273 126.5,706C 97.4028,701.117 72.0695,688.783 50.5,669C 21.8175,643.961 7.15086,612.294 6.5,574C 8.77162,540.959 21.9383,513.126 46,490.5C 58.3858,476.731 69.0524,461.731 78,445.5C 81.5368,424.982 77.2034,406.315 65,389.5C 51.0293,374.529 36.6959,359.862 22,345.5C 15.0022,337.157 9.66883,327.823 6,317.5C 3.27506,306.13 1.10839,294.797 -0.5,283.5C -0.5,273.167 -0.5,262.833 -0.5,252.5C 2.8824,221.235 16.2157,195.068 39.5,174C 56.7318,161.396 76.0651,153.73 97.5,151C 114.132,149.776 130.799,149.109 147.5,149C 243.116,142.12 275.783,93.12 245.5,2C 245.743,1.09789 246.077,0.264561 246.5,-0.5 Z"/></g>
</svg>
