<svg width="21" height="16" viewBox="0 0 65 50" fill="none" xmlns="http://www.w3.org/2000/svg">
  <g filter="url(#filter0_i_135_9)">
    <ellipse cx="53.4088" cy="19.3289" rx="10.6818" ry="10.6818" fill="#18B0F0" />
  </g>
  <g filter="url(#filter1_i_135_9)">
    <ellipse cx="10.6818" cy="19.3289" rx="10.6818" ry="10.6818" fill="#18B0F0" />
  </g>
  <g filter="url(#filter2_i_135_9)">
    <circle cx="32.0453" cy="19.3289" r="19.3289" fill="#18B0F0" />
  </g>
  <path
    d="M33.0291 28.5469C30.5273 27.0634 28.3572 25.1032 26.6171 22.6484C25.2156 20.6703 24.112 18.513 23.3875 16.1765C22.8391 14.4063 22.6529 12.507 23.2995 10.7295C23.726 9.5613 24.6604 8.67616 25.8216 8.26047C26.4682 8.02754 27.1724 8.09921 27.6835 8.72991C28.6382 9.91248 29.6369 11.0592 30.5205 12.2991C31.1434 13.1735 30.9234 14.0049 30.1109 14.6786C29.6098 15.0943 29.0953 15.4992 28.6552 15.983C28.4825 16.1765 28.3674 16.6209 28.4588 16.8538C28.7432 17.5849 29.0614 18.3267 29.5083 18.9538C30.6187 20.5126 31.7562 22.0607 33.3371 23.1609C34.0311 23.6411 34.6067 23.6733 35.2363 23.1107C35.6392 22.7523 36.0488 22.394 36.4652 22.05C37.2303 21.4193 37.9717 21.43 38.615 22.1718C39.5832 23.2863 40.5277 24.4294 41.4418 25.5977C42.0037 26.318 41.6313 27.8947 40.7951 28.7297C38.5896 30.927 35.3341 29.9128 33.0291 28.5469Z"
    fill="white" />
</svg>