<svg width="65" height="50" viewBox="0 0 65 50" fill="none" xmlns="http://www.w3.org/2000/svg">
<g filter="url(#filter0_i_135_9)">
<ellipse cx="53.4088" cy="19.3289" rx="10.6818" ry="10.6818" fill="#18B0F0"/>
</g>
<g filter="url(#filter1_i_135_9)">
<ellipse cx="10.6818" cy="19.3289" rx="10.6818" ry="10.6818" fill="#18B0F0"/>
</g>
<g filter="url(#filter2_i_135_9)">
<circle cx="32.0453" cy="19.3289" r="19.3289" fill="#18B0F0"/>
</g>
<path d="M33.0291 28.5469C30.5273 27.0634 28.3572 25.1032 26.6171 22.6484C25.2156 20.6703 24.112 18.513 23.3875 16.1765C22.8391 14.4063 22.6529 12.507 23.2995 10.7295C23.726 9.5613 24.6604 8.67616 25.8216 8.26047C26.4682 8.02754 27.1724 8.09921 27.6835 8.72991C28.6382 9.91248 29.6369 11.0592 30.5205 12.2991C31.1434 13.1735 30.9234 14.0049 30.1109 14.6786C29.6098 15.0943 29.0953 15.4992 28.6552 15.983C28.4825 16.1765 28.3674 16.6209 28.4588 16.8538C28.7432 17.5849 29.0614 18.3267 29.5083 18.9538C30.6187 20.5126 31.7562 22.0607 33.3371 23.1609C34.0311 23.6411 34.6067 23.6733 35.2363 23.1107C35.6392 22.7523 36.0488 22.394 36.4652 22.05C37.2303 21.4193 37.9717 21.43 38.615 22.1718C39.5832 23.2863 40.5277 24.4294 41.4418 25.5977C42.0037 26.318 41.6313 27.8947 40.7951 28.7297C38.5896 30.927 35.3341 29.9128 33.0291 28.5469Z" fill="white"/>
<path d="M60.7745 44.485C61.8328 44.485 62.5813 45.3109 62.5813 46.4122C62.5813 46.5327 62.478 46.6273 62.3662 46.6273H59.3807C59.4065 47.3156 59.9227 47.9867 60.8261 47.9867C61.3079 47.9867 61.6865 47.8146 61.9962 47.4447C62.0392 47.3931 62.0995 47.3328 62.1941 47.3328C62.3318 47.3328 62.4092 47.4361 62.4092 47.5479C62.4092 47.6081 62.392 47.6512 62.3576 47.7028C62.0651 48.1072 61.5058 48.4255 60.8261 48.4255C59.5958 48.4255 58.8558 47.4963 58.8558 46.4552C58.8558 45.4056 59.6388 44.485 60.7745 44.485ZM62.1081 46.1971C62.0392 45.4744 61.5144 44.9152 60.7745 44.9152C60.0174 44.9152 59.4667 45.4916 59.3979 46.1971H62.1081Z" fill="#18B0F0"/>
<path d="M57.7595 46.2143V48.133C57.7595 48.2792 57.6476 48.3911 57.5014 48.3911C57.3551 48.3911 57.2432 48.2792 57.2432 48.133V46.2229C57.2432 45.4486 56.8389 44.9582 56.0387 44.9582C55.3074 44.9582 54.7481 45.4916 54.7481 46.3348V48.133C54.7481 48.2792 54.6363 48.3911 54.49 48.3911C54.3438 48.3911 54.2319 48.2792 54.2319 48.133V44.7775C54.2319 44.6312 54.3438 44.5194 54.49 44.5194C54.6363 44.5194 54.7481 44.6312 54.7481 44.7775V45.2249C55.0235 44.7517 55.5225 44.485 56.1506 44.485C57.1486 44.485 57.7595 45.2163 57.7595 46.2143Z" fill="#18B0F0"/>
<path d="M53.0999 46.4552C53.0999 47.5479 52.2912 48.4255 51.1382 48.4255C49.9853 48.4255 49.1766 47.5479 49.1766 46.4552C49.1766 45.3626 49.9853 44.485 51.1382 44.485C52.2912 44.485 53.0999 45.3626 53.0999 46.4552ZM52.5837 46.4552C52.5837 45.5777 51.947 44.9324 51.1382 44.9324C50.3295 44.9324 49.6928 45.5777 49.6928 46.4552C49.6928 47.3328 50.3295 47.9781 51.1382 47.9781C51.947 47.9781 52.5837 47.3328 52.5837 46.4552Z" fill="#18B0F0"/>
<path d="M48.0802 46.2143V48.133C48.0802 48.2792 47.9684 48.3911 47.8221 48.3911C47.6758 48.3911 47.564 48.2792 47.564 48.133V46.2229C47.564 45.4486 47.1596 44.9582 46.3594 44.9582C45.6281 44.9582 45.0689 45.4916 45.0689 46.3348V48.133C45.0689 48.2792 44.957 48.3911 44.8108 48.3911C44.6645 48.3911 44.5526 48.2792 44.5526 48.133V42.7814C44.5526 42.6352 44.6645 42.5233 44.8108 42.5233C44.957 42.5233 45.0689 42.6352 45.0689 42.7814V45.2249C45.3442 44.7517 45.8432 44.485 46.4713 44.485C47.4693 44.485 48.0802 45.2163 48.0802 46.2143Z" fill="#18B0F0"/>
<path d="M39.994 44.7775V45.2765C40.3209 44.7861 40.8458 44.485 41.5341 44.485C42.5837 44.485 43.4183 45.3109 43.4183 46.4552C43.4183 47.5995 42.5837 48.4255 41.5341 48.4255C40.8458 48.4255 40.3209 48.1244 39.994 47.634V49.7419C39.994 49.8881 39.8821 50 39.7359 50C39.5896 50 39.4778 49.8881 39.4778 49.7419V44.7775C39.4778 44.6312 39.5896 44.5194 39.7359 44.5194C39.8821 44.5194 39.994 44.6312 39.994 44.7775ZM42.9021 46.4552C42.9021 45.5604 42.317 44.9238 41.4566 44.9238C40.5704 44.9238 39.994 45.6207 39.994 46.4552C39.994 47.2898 40.5704 47.9867 41.4566 47.9867C42.317 47.9867 42.9021 47.35 42.9021 46.4552Z" fill="#18B0F0"/>
<path d="M36.5259 44.485C37.5842 44.485 38.3327 45.3109 38.3327 46.4122C38.3327 46.5327 38.2295 46.6273 38.1176 46.6273H35.1321C35.1579 47.3156 35.6741 47.9867 36.5775 47.9867C37.0594 47.9867 37.4379 47.8146 37.7477 47.4447C37.7907 47.3931 37.8509 47.3328 37.9455 47.3328C38.0832 47.3328 38.1606 47.4361 38.1606 47.5479C38.1606 47.6081 38.1434 47.6512 38.109 47.7028C37.8165 48.1072 37.2572 48.4255 36.5775 48.4255C35.3472 48.4255 34.6073 47.4963 34.6073 46.4552C34.6073 45.4056 35.3902 44.485 36.5259 44.485ZM37.8595 46.1971C37.7907 45.4744 37.2658 44.9152 36.5259 44.9152C35.7688 44.9152 35.2181 45.4916 35.1493 46.1971H37.8595Z" fill="#18B0F0"/>
<path d="M33.4739 48.133C33.4739 48.2792 33.3621 48.3911 33.2158 48.3911C33.0695 48.3911 32.9577 48.2792 32.9577 48.133V42.7814C32.9577 42.6352 33.0695 42.5233 33.2158 42.5233C33.3621 42.5233 33.4739 42.6352 33.4739 42.7814V48.133Z" fill="#18B0F0"/>
<path d="M30.0059 44.485C31.0641 44.485 31.8127 45.3109 31.8127 46.4122C31.8127 46.5327 31.7094 46.6273 31.5976 46.6273H28.612C28.6379 47.3156 29.1541 47.9867 30.0575 47.9867C30.5393 47.9867 30.9179 47.8146 31.2276 47.4447C31.2706 47.3931 31.3308 47.3328 31.4255 47.3328C31.5631 47.3328 31.6406 47.4361 31.6406 47.5479C31.6406 47.6081 31.6234 47.6512 31.589 47.7028C31.2964 48.1072 30.7372 48.4255 30.0575 48.4255C28.8271 48.4255 28.0872 47.4963 28.0872 46.4552C28.0872 45.4056 28.8702 44.485 30.0059 44.485ZM31.3394 46.1971C31.2706 45.4744 30.7458 44.9152 30.0059 44.9152C29.2487 44.9152 28.6981 45.4916 28.6293 46.1971H31.3394Z" fill="#18B0F0"/>
<path d="M26.5955 48.133C26.5955 48.2792 26.4836 48.3911 26.3373 48.3911C26.1911 48.3911 26.0792 48.2792 26.0792 48.133V43.0567H24.2208C24.0918 43.0567 23.9885 42.9535 23.9885 42.8244C23.9885 42.6954 24.0918 42.5921 24.2208 42.5921H28.4539C28.5829 42.5921 28.6862 42.6954 28.6862 42.8244C28.6862 42.9535 28.5829 43.0567 28.4539 43.0567H26.5955V48.133Z" fill="#18B0F0"/>
<path d="M23.2279 43.0395V47.8749C23.2279 48.1588 23.03 48.3911 22.7289 48.3911C22.4277 48.3911 22.2298 48.1502 22.2298 47.8663V47.8146C21.9803 48.1932 21.5587 48.4255 21.0511 48.4255C19.9068 48.4255 19.3046 47.4705 19.3046 46.4552C19.3046 45.44 19.9154 44.485 21.0511 44.485C21.4985 44.485 21.9373 44.6743 22.1954 45.0958V43.0395C22.1954 42.7556 22.4277 42.5233 22.7117 42.5233C22.9956 42.5233 23.2279 42.7556 23.2279 43.0395ZM20.337 46.4552C20.337 47.0575 20.6812 47.5479 21.2748 47.5479C21.8685 47.5479 22.1954 47.0317 22.1954 46.4552C22.1954 45.8788 21.8599 45.3626 21.2748 45.3626C20.6812 45.3626 20.337 45.853 20.337 46.4552Z" fill="#18B0F0"/>
<path d="M15.7373 46.6015C15.7373 47.1005 15.9868 47.4963 16.5202 47.4963C17.0967 47.4963 17.329 47.0575 17.329 46.6015V45.0356C17.329 44.7517 17.5613 44.5194 17.8452 44.5194C18.1291 44.5194 18.3614 44.7517 18.3614 45.0356V47.8663C18.3614 48.1932 18.1377 48.3911 17.8452 48.3911C17.5527 48.3911 17.329 48.1932 17.329 47.8663V47.7974C17.1225 48.176 16.7525 48.4255 16.2191 48.4255C15.2555 48.4255 14.7048 47.6856 14.7048 46.6531V45.0356C14.7048 44.7517 14.9371 44.5194 15.221 44.5194C15.505 44.5194 15.7373 44.7517 15.7373 45.0356V46.6015Z" fill="#18B0F0"/>
<path d="M13.8015 46.4552C13.8015 47.5393 12.9927 48.4255 11.8312 48.4255C10.6697 48.4255 9.86096 47.5393 9.86096 46.4552C9.86096 45.3712 10.6697 44.485 11.8312 44.485C12.9927 44.485 13.8015 45.3712 13.8015 46.4552ZM12.7862 46.4552C12.7862 45.8788 12.4249 45.3798 11.8312 45.3798C11.2376 45.3798 10.8762 45.8788 10.8762 46.4552C10.8762 47.0317 11.2376 47.5307 11.8312 47.5307C12.4249 47.5307 12.7862 47.0317 12.7862 46.4552Z" fill="#18B0F0"/>
<path d="M7.86689 47.8749V43.0395C7.86689 42.7556 8.09919 42.5233 8.38312 42.5233C8.66704 42.5233 8.89935 42.7556 8.89935 43.0395V47.8749C8.89935 48.1588 8.66704 48.3911 8.38312 48.3911C8.09919 48.3911 7.86689 48.1588 7.86689 47.8749Z" fill="#18B0F0"/>
<path d="M4.79541 47.4533C5.38046 47.4533 5.73322 47.2296 6.06016 46.9801C6.17201 46.9026 6.28386 46.8596 6.40432 46.8596C6.69684 46.8596 6.87752 47.0833 6.87752 47.3414C6.87752 47.4791 6.8173 47.5909 6.71405 47.6942C6.22364 48.2018 5.4665 48.4255 4.79541 48.4255C3.10906 48.4255 1.87012 47.2554 1.87012 45.4572C1.87012 43.659 3.10906 42.4889 4.79541 42.4889C5.4665 42.4889 6.22364 42.7126 6.71405 43.2202C6.8173 43.3235 6.87752 43.4353 6.87752 43.573C6.87752 43.8311 6.69684 44.0548 6.40432 44.0548C6.28386 44.0548 6.17201 44.0118 6.06016 43.9343C5.73322 43.6848 5.38046 43.4611 4.79541 43.4611C3.66831 43.4611 2.92838 44.3129 2.92838 45.4572C2.92838 46.6015 3.66831 47.4533 4.79541 47.4533Z" fill="#18B0F0"/>
<defs>
<filter id="filter0_i_135_9" x="42.7271" y="8.64716" width="21.3635" height="21.3635" filterUnits="userSpaceOnUse" color-interpolation-filters="sRGB">
<feFlood flood-opacity="0" result="BackgroundImageFix"/>
<feBlend mode="normal" in="SourceGraphic" in2="BackgroundImageFix" result="shape"/>
<feColorMatrix in="SourceAlpha" type="matrix" values="0 0 0 0 0 0 0 0 0 0 0 0 0 0 0 0 0 0 127 0" result="hardAlpha"/>
<feOffset/>
<feGaussianBlur stdDeviation="5"/>
<feComposite in2="hardAlpha" operator="arithmetic" k2="-1" k3="1"/>
<feColorMatrix type="matrix" values="0 0 0 0 0 0 0 0 0 0 0 0 0 0 0 0 0 0 0.07 0"/>
<feBlend mode="normal" in2="shape" result="effect1_innerShadow_135_9"/>
</filter>
<filter id="filter1_i_135_9" x="0" y="8.64716" width="21.3635" height="21.3635" filterUnits="userSpaceOnUse" color-interpolation-filters="sRGB">
<feFlood flood-opacity="0" result="BackgroundImageFix"/>
<feBlend mode="normal" in="SourceGraphic" in2="BackgroundImageFix" result="shape"/>
<feColorMatrix in="SourceAlpha" type="matrix" values="0 0 0 0 0 0 0 0 0 0 0 0 0 0 0 0 0 0 127 0" result="hardAlpha"/>
<feOffset/>
<feGaussianBlur stdDeviation="5"/>
<feComposite in2="hardAlpha" operator="arithmetic" k2="-1" k3="1"/>
<feColorMatrix type="matrix" values="0 0 0 0 0 0 0 0 0 0 0 0 0 0 0 0 0 0 0.07 0"/>
<feBlend mode="normal" in2="shape" result="effect1_innerShadow_135_9"/>
</filter>
<filter id="filter2_i_135_9" x="12.7164" y="0" width="38.6578" height="38.6578" filterUnits="userSpaceOnUse" color-interpolation-filters="sRGB">
<feFlood flood-opacity="0" result="BackgroundImageFix"/>
<feBlend mode="normal" in="SourceGraphic" in2="BackgroundImageFix" result="shape"/>
<feColorMatrix in="SourceAlpha" type="matrix" values="0 0 0 0 0 0 0 0 0 0 0 0 0 0 0 0 0 0 127 0" result="hardAlpha"/>
<feOffset/>
<feGaussianBlur stdDeviation="5"/>
<feComposite in2="hardAlpha" operator="arithmetic" k2="-1" k3="1"/>
<feColorMatrix type="matrix" values="0 0 0 0 0 0 0 0 0 0 0 0 0 0 0 0 0 0 0.07 0"/>
<feBlend mode="normal" in2="shape" result="effect1_innerShadow_135_9"/>
</filter>
</defs>
</svg>
