<svg width="288" height="39" viewBox="0 0 288 39" fill="none" xmlns="http://www.w3.org/2000/svg">
<path fill-rule="evenodd" clip-rule="evenodd" d="M24.1499 1.74053C16.2194 1.74053 9.7905 8.16945 9.7905 16.0999C9.7905 24.0304 16.2194 30.4593 24.1499 30.4593C26.8202 30.4593 29.3178 29.7313 31.458 28.4633C32.7019 27.7263 32.9221 26.0657 31.8685 24.9273C31.7514 24.8008 31.6528 24.6985 31.577 24.6244C31.5391 24.5872 31.5109 24.5611 31.4918 24.5443C31.4873 24.5402 31.4838 24.5373 31.4813 24.5352C31.0964 24.2645 30.9957 23.7346 31.2582 23.3408C31.5248 22.9409 32.0651 22.8328 32.465 23.0994C32.5852 23.1795 32.7077 23.2955 32.7948 23.3807C32.8981 23.4819 33.0178 23.6066 33.1459 23.7451C34.8801 25.619 34.6324 28.6056 32.3451 29.9608C29.9438 31.3834 27.1409 32.1999 24.1499 32.1999C15.2581 32.1999 8.04996 24.9917 8.04996 16.0999C8.04996 7.20818 15.2581 0 24.1499 0C30.886 0 36.6539 4.13658 39.0558 10.0047C39.2379 10.4496 39.0249 10.9578 38.58 11.1398C38.1352 11.3219 37.627 11.1089 37.445 10.6641C35.3014 5.42721 30.1552 1.74053 24.1499 1.74053Z" fill="#18B0F0"/>
<path d="M38.3722 11.3293C37.8763 11.3293 37.4995 10.9514 37.4995 10.4494C37.4995 9.94734 37.8763 9.57293 38.3722 9.57293C42.0198 9.57293 45.3172 11.0678 47.7104 13.4636C50.0743 15.8629 51.5633 19.1682 51.5633 22.7889C51.5633 26.4097 50.0743 29.7142 47.7104 32.1142C45.3172 34.5058 42.0198 36 38.3722 36H13.2198C9.57431 36 6.27478 34.5058 3.88365 32.1142C1.49253 29.7142 0 26.4139 0 22.7889C0 20.4513 0.615641 18.2553 1.69214 16.3285C2.83097 14.3393 4.43766 12.6748 6.36233 11.5039C6.77065 11.2382 7.32466 11.3882 7.58801 11.7949C7.82264 12.21 7.70637 12.7667 7.29524 12.9987C5.60521 14.0533 4.20373 15.4815 3.2414 17.2007C2.30568 18.8449 1.78109 20.771 1.78109 22.7889C1.78109 25.9448 3.0663 28.809 5.13595 30.8893C7.2098 32.9612 10.0695 34.2478 13.2198 34.2478H38.3715C41.526 34.2478 44.3836 32.9612 46.4511 30.8893C48.5264 28.809 49.813 25.9441 49.813 22.7889C49.813 19.6337 48.5271 16.7688 46.4511 14.6927C44.3836 12.6131 41.5267 11.3293 38.3722 11.3293Z" fill="#18B0F0"/>
<path d="M17.4215 12.224C17.4168 12.1362 17.3951 12.0502 17.3576 11.9709C17.3201 11.8916 17.2675 11.8206 17.2029 11.7618C17.1382 11.7031 17.0628 11.6579 16.9809 11.6286C16.899 11.5994 16.8122 11.5868 16.7255 11.5916C16.6388 11.5963 16.5539 11.6183 16.4756 11.6563C16.3972 11.6943 16.3271 11.7475 16.2691 11.813C16.2111 11.8784 16.1664 11.9548 16.1375 12.0377C16.1087 12.1206 16.0963 12.2085 16.1009 12.2963L17.4215 12.224ZM18.2731 8.80267C18.1573 8.93222 18.0961 9.10247 18.1026 9.27706C18.1091 9.45166 18.1828 9.61676 18.3079 9.73712C18.4329 9.85747 18.5995 9.92355 18.7721 9.92123C18.9446 9.91892 19.1094 9.8484 19.2313 9.72472L18.2731 8.80267ZM23.5147 23.7269C23.5882 23.7749 23.6704 23.8076 23.7565 23.8232C23.8426 23.8388 23.9309 23.8369 24.0163 23.8177C24.1017 23.7985 24.1824 23.7623 24.2539 23.7113C24.3254 23.6602 24.3862 23.5953 24.4327 23.5204C24.4792 23.4454 24.5106 23.3618 24.525 23.2744C24.5394 23.1871 24.5366 23.0977 24.5166 23.0115C24.4967 22.9253 24.46 22.8439 24.4088 22.7721C24.3576 22.7003 24.2928 22.6396 24.2182 22.5933L23.5147 23.7269ZM27.4367 23.9465C27.265 23.9102 27.086 23.9444 26.9392 24.0416C26.7924 24.1389 26.6898 24.2912 26.6539 24.4651C26.618 24.639 26.6518 24.8202 26.7479 24.9688C26.8439 25.1175 26.9943 25.2214 27.1661 25.2577L27.4367 23.9465ZM27.9057 19.9173L28.3068 19.4889L27.3477 18.5668L26.9466 18.9952L27.9057 19.9173ZM29.6282 19.3085L31.312 20.2904L31.9722 19.13L30.2876 18.1482L29.6282 19.3085ZM31.6373 22.3255L30.3846 23.66L31.3437 24.5829L32.5955 23.2476L31.6373 22.3255ZM21.4828 20.2877C18.0659 16.645 17.4929 13.5718 17.4215 12.224L16.1009 12.2963C16.1891 13.9476 16.8802 17.3252 20.5245 21.2098L21.4828 20.2877ZM22.6958 14.3636L22.9479 14.094L21.9897 13.1719L21.7366 13.4415L22.6958 14.3636ZM23.1471 10.7378L22.0355 9.14632L20.9556 9.91931L22.0663 11.5108L23.1471 10.7378ZM22.2153 13.9021C22.0567 13.7473 21.8965 13.594 21.7349 13.4424L21.7331 13.4442L21.7305 13.4469C21.7148 13.4633 21.7001 13.4805 21.6864 13.4986C21.6 13.6144 21.5316 13.743 21.4836 13.8798C21.3973 14.1252 21.3514 14.4501 21.4096 14.8554C21.5242 15.6516 22.0399 16.7218 23.386 18.158L24.3451 17.235C23.0863 15.8935 22.776 15.0678 22.7178 14.6608C22.6896 14.4644 22.7178 14.3618 22.7293 14.3287L22.7363 14.3118C22.7291 14.3235 22.7208 14.3346 22.7116 14.3448C22.7065 14.3509 22.7012 14.3577 22.6958 14.3636L22.2153 13.9021ZM23.386 18.1571C24.7286 19.5888 25.7424 20.1512 26.5155 20.2788C26.9131 20.344 27.2348 20.2913 27.4781 20.194C27.6133 20.1405 27.7389 20.0651 27.8502 19.9709L27.881 19.9405L27.8933 19.928C27.8954 19.9263 27.8975 19.9245 27.8995 19.9227L27.9022 19.92L27.903 19.9182C27.903 19.9182 27.9048 19.9173 27.4252 19.4558C26.9457 18.9952 26.9466 18.9944 26.9466 18.9935L26.9483 18.9926L26.9501 18.9899L26.9554 18.9854C26.9687 18.9724 26.9825 18.9599 26.9968 18.9479C27.0048 18.9426 27.0039 18.9444 26.9924 18.9488C26.9748 18.956 26.8954 18.9845 26.7279 18.9569C26.3736 18.898 25.6084 18.582 24.3451 17.235L23.386 18.1571ZM22.0355 9.14632C21.1416 7.86633 19.3538 7.64943 18.2731 8.80267L19.2313 9.72472C19.6923 9.23379 20.5043 9.27218 20.9556 9.91931L22.0355 9.14632ZM30.3846 23.66C30.1386 23.9224 29.8821 24.0634 29.6318 24.0884L29.7613 25.4202C30.4199 25.355 30.9532 24.9998 31.3437 24.5829L30.3846 23.66ZM22.9479 14.094C23.8012 13.1844 23.8612 11.7616 23.1471 10.7378L22.0672 11.5108C22.4392 12.0437 22.3819 12.7542 21.9897 13.1719L22.9479 14.094ZM31.312 20.2904C32.0357 20.7126 32.1777 21.7498 31.6373 22.3255L32.5955 23.2476C33.7459 22.0212 33.4109 19.9691 31.9722 19.13L31.312 20.2904ZM28.3068 19.4889C28.6462 19.1265 29.176 19.0452 29.6282 19.3085L30.2876 18.1482C29.3188 17.584 28.119 17.7456 27.3477 18.5668L28.3068 19.4889ZM24.2182 22.5933C23.3516 22.0417 22.4287 21.2955 21.4828 20.2877L20.5245 21.2098C21.5418 22.2943 22.5494 23.1128 23.5147 23.7269L24.2182 22.5933ZM29.6309 24.0884C28.8966 24.1537 28.1568 24.1058 27.4367 23.9465L27.1661 25.2577C28.0181 25.4446 28.8931 25.4993 29.7613 25.4202L29.6309 24.0884Z" fill="#6E6E6E"/>
<path d="M280.297 17.4731C284.304 17.4731 287.137 20.6 287.137 24.7691C287.137 25.2251 286.747 25.5834 286.323 25.5834H275.021C275.119 28.1891 277.073 30.7297 280.493 30.7297C282.317 30.7297 283.75 30.0783 284.923 28.6777C285.085 28.4823 285.313 28.2543 285.672 28.2543C286.193 28.2543 286.486 28.6451 286.486 29.0686C286.486 29.2966 286.421 29.4594 286.291 29.6549C285.183 31.1857 283.066 32.3909 280.493 32.3909C275.835 32.3909 273.034 28.8731 273.034 24.932C273.034 20.9583 275.998 17.4731 280.297 17.4731ZM285.346 23.9549C285.085 21.2189 283.099 19.1017 280.297 19.1017C277.431 19.1017 275.347 21.284 275.086 23.9549H285.346Z" fill="#6E6E6E"/>
<path d="M268.884 24.02V31.2834C268.884 31.8371 268.46 32.2606 267.906 32.2606C267.353 32.2606 266.929 31.8371 266.929 31.2834V24.0526C266.929 21.1211 265.398 19.2646 262.369 19.2646C259.601 19.2646 257.484 21.284 257.484 24.476V31.2834C257.484 31.8371 257.06 32.2606 256.506 32.2606C255.953 32.2606 255.529 31.8371 255.529 31.2834V18.5806C255.529 18.0269 255.953 17.6034 256.506 17.6034C257.06 17.6034 257.484 18.0269 257.484 18.5806V20.2743C258.526 18.4829 260.415 17.4731 262.793 17.4731C266.571 17.4731 268.884 20.2417 268.884 24.02Z" fill="#6E6E6E"/>
<path d="M251.244 24.932C251.244 29.0686 248.182 32.3909 243.818 32.3909C239.453 32.3909 236.391 29.0686 236.391 24.932C236.391 20.7954 239.453 17.4731 243.818 17.4731C248.182 17.4731 251.244 20.7954 251.244 24.932ZM249.29 24.932C249.29 21.6097 246.879 19.1669 243.818 19.1669C240.756 19.1669 238.346 21.6097 238.346 24.932C238.346 28.2543 240.756 30.6971 243.818 30.6971C246.879 30.6971 249.29 28.2543 249.29 24.932Z" fill="#6E6E6E"/>
<path d="M232.241 24.02V31.2834C232.241 31.8372 231.817 32.2606 231.263 32.2606C230.71 32.2606 230.286 31.8372 230.286 31.2834V24.0526C230.286 21.1212 228.755 19.2646 225.726 19.2646C222.958 19.2646 220.841 21.284 220.841 24.476V31.2834C220.841 31.8372 220.417 32.2606 219.863 32.2606C219.31 32.2606 218.886 31.8372 218.886 31.2834V11.024C218.886 10.4703 219.31 10.0469 219.863 10.0469C220.417 10.0469 220.841 10.4703 220.841 11.024V20.2743C221.883 18.4829 223.772 17.4732 226.15 17.4732C229.928 17.4732 232.241 20.2417 232.241 24.02Z" fill="#6E6E6E"/>
<path d="M201.629 18.5806V20.4697C202.866 18.6131 204.853 17.4731 207.459 17.4731C211.433 17.4731 214.592 20.6 214.592 24.932C214.592 29.264 211.433 32.3909 207.459 32.3909C204.853 32.3909 202.866 31.2509 201.629 29.3943V37.3743C201.629 37.928 201.205 38.3514 200.651 38.3514C200.098 38.3514 199.674 37.928 199.674 37.3743V18.5806C199.674 18.0269 200.098 17.6034 200.651 17.6034C201.205 17.6034 201.629 18.0269 201.629 18.5806ZM212.638 24.932C212.638 21.5446 210.423 19.1343 207.166 19.1343C203.811 19.1343 201.629 21.7726 201.629 24.932C201.629 28.0914 203.811 30.7297 207.166 30.7297C210.423 30.7297 212.638 28.3194 212.638 24.932Z" fill="#6E6E6E"/>
<path d="M188.5 17.4731C192.506 17.4731 195.34 20.6 195.34 24.7691C195.34 25.2251 194.949 25.5834 194.525 25.5834H183.223C183.321 28.1891 185.275 30.7297 188.695 30.7297C190.519 30.7297 191.952 30.0783 193.125 28.6777C193.288 28.4823 193.515 28.2543 193.874 28.2543C194.395 28.2543 194.688 28.6451 194.688 29.0686C194.688 29.2966 194.623 29.4594 194.493 29.6549C193.385 31.1857 191.268 32.3909 188.695 32.3909C184.037 32.3909 181.236 28.8731 181.236 24.932C181.236 20.9583 184.2 17.4731 188.5 17.4731ZM193.548 23.9549C193.287 21.2189 191.301 19.1017 188.5 19.1017C185.633 19.1017 183.549 21.284 183.288 23.9549H193.548Z" fill="#6E6E6E"/>
<path d="M176.946 31.2834C176.946 31.8372 176.522 32.2606 175.968 32.2606C175.415 32.2606 174.991 31.8372 174.991 31.2834V11.024C174.991 10.4703 175.415 10.0469 175.968 10.0469C176.522 10.0469 176.946 10.4703 176.946 11.024V31.2834Z" fill="#6E6E6E"/>
<path d="M163.817 17.4731C167.823 17.4731 170.657 20.6 170.657 24.7691C170.657 25.2251 170.266 25.5834 169.842 25.5834H158.54C158.638 28.1891 160.592 30.7297 164.012 30.7297C165.836 30.7297 167.269 30.0783 168.442 28.6777C168.605 28.4823 168.833 28.2543 169.191 28.2543C169.712 28.2543 170.005 28.6451 170.005 29.0686C170.005 29.2966 169.94 29.4594 169.81 29.6549C168.702 31.1857 166.585 32.3909 164.012 32.3909C159.354 32.3909 156.553 28.8731 156.553 24.932C156.553 20.9583 159.517 17.4731 163.817 17.4731ZM168.865 23.9549C168.605 21.2189 166.618 19.1017 163.817 19.1017C160.95 19.1017 158.866 21.284 158.605 23.9549H168.865Z" fill="#6E6E6E"/>
<path d="M150.906 31.2834C150.906 31.8371 150.482 32.2606 149.929 32.2606C149.375 32.2606 148.951 31.8371 148.951 31.2834V12.0663H141.916C141.427 12.0663 141.037 11.6754 141.037 11.1869C141.037 10.6983 141.427 10.3074 141.916 10.3074H157.941C158.43 10.3074 158.821 10.6983 158.821 11.1869C158.821 11.6754 158.43 12.0663 157.941 12.0663H150.906V31.2834Z" fill="#6E6E6E"/>
<path d="M138.157 12.0012V30.3063C138.157 31.3812 137.408 32.2606 136.268 32.2606C135.128 32.2606 134.379 31.3486 134.379 30.2737V30.0783C133.434 31.5114 131.838 32.3909 129.917 32.3909C125.585 32.3909 123.305 28.7754 123.305 24.932C123.305 21.0886 125.617 17.4732 129.917 17.4732C131.61 17.4732 133.271 18.1897 134.249 19.7857V12.0012C134.249 10.9263 135.128 10.0469 136.203 10.0469C137.278 10.0469 138.157 10.9263 138.157 12.0012ZM127.213 24.932C127.213 27.212 128.516 29.0686 130.763 29.0686C133.011 29.0686 134.249 27.1143 134.249 24.932C134.249 22.7497 132.978 20.7954 130.763 20.7954C128.516 20.7954 127.213 22.652 127.213 24.932Z" fill="#18B0F0"/>
<path d="M109.8 25.4857C109.8 27.3749 110.744 28.8732 112.764 28.8732C114.946 28.8732 115.826 27.212 115.826 25.4857V19.5577C115.826 18.4829 116.705 17.6035 117.78 17.6035C118.855 17.6035 119.734 18.4829 119.734 19.5577V30.2737C119.734 31.5115 118.887 32.2606 117.78 32.2606C116.672 32.2606 115.826 31.5115 115.826 30.2737V30.0132C115.044 31.4463 113.643 32.3909 111.624 32.3909C107.976 32.3909 105.891 29.5897 105.891 25.6812V19.5577C105.891 18.4829 106.771 17.6035 107.846 17.6035C108.92 17.6035 109.8 18.4829 109.8 19.5577V25.4857Z" fill="#18B0F0"/>
<path d="M102.472 24.932C102.472 29.036 99.4098 32.3909 95.0127 32.3909C90.6155 32.3909 87.5538 29.036 87.5538 24.932C87.5538 20.828 90.6155 17.4731 95.0127 17.4731C99.4098 17.4731 102.472 20.828 102.472 24.932ZM98.6281 24.932C98.6281 22.7497 97.2601 20.8606 95.0127 20.8606C92.7653 20.8606 91.3973 22.7497 91.3973 24.932C91.3973 27.1143 92.7653 29.0034 95.0127 29.0034C97.2601 29.0034 98.6281 27.1143 98.6281 24.932Z" fill="#18B0F0"/>
<path d="M80.0049 30.3063V12.0012C80.0049 10.9263 80.8843 10.0469 81.9592 10.0469C83.034 10.0469 83.9135 10.9263 83.9135 12.0012V30.3063C83.9135 31.3812 83.034 32.2606 81.9592 32.2606C80.8843 32.2606 80.0049 31.3812 80.0049 30.3063Z" fill="#18B0F0"/>
<path d="M68.3771 28.7103C70.592 28.7103 71.9274 27.8634 73.1651 26.9188C73.5886 26.6257 74.012 26.4629 74.468 26.4629C75.5754 26.4629 76.2594 27.3097 76.2594 28.2868C76.2594 28.808 76.0314 29.2314 75.6406 29.6223C73.784 31.544 70.9177 32.3909 68.3771 32.3909C61.9931 32.3909 57.3029 27.9611 57.3029 21.1537C57.3029 14.3463 61.9931 9.91656 68.3771 9.91656C70.9177 9.91656 73.784 10.7634 75.6406 12.6851C76.0314 13.076 76.2594 13.4994 76.2594 14.0206C76.2594 14.9977 75.5754 15.8446 74.468 15.8446C74.012 15.8446 73.5886 15.6817 73.1651 15.3886C71.9274 14.444 70.592 13.5971 68.3771 13.5971C64.1103 13.5971 61.3091 16.8217 61.3091 21.1537C61.3091 25.4857 64.1103 28.7103 68.3771 28.7103Z" fill="#18B0F0"/>
</svg>
