<?xml version="1.0" encoding="utf-8"?>
<!-- Generator: Adobe Illustrator 27.5.0, SVG Export Plug-In . SVG Version: 6.00 Build 0)  -->
<svg version="1.1" xmlns="http://www.w3.org/2000/svg" xmlns:xlink="http://www.w3.org/1999/xlink" x="0px" y="0px"
	 viewBox="0 0 750 500" style="enable-background:new 0 0 750 500;" xml:space="preserve">
<g id="BACKGROUND">
	<rect style="fill:#FFFFFF;" width="750" height="500"/>
</g>
<g id="OBJECTS">
	<g>
		<g>
			<path style="fill:none;stroke:#9FAFC9;stroke-miterlimit:10;stroke-dasharray:3.5,3.5;" d="M237.011,370.421
				c-42.331-56.095-95.3-26.422-132.938-26.932c-44.409-0.603-58.055-62.096-27.091-88.277c10.67-9.022,24.09-14.102,37.506-18.015
				c19.869-5.795,46.215-11.436,57.318-31.053c17.832-31.511-8.891-82.175,32.984-100.204
				c49.449-21.289,79.811,34.066,125.323,37.696c44.129,3.52,86.301-23.079,122.585-44.761c27.745-16.58,63.46-27.805,91.689-12.058
				c28.376,15.83,42.274,46.576,45.227,77.862c2.37,25.107-5.397,46.731-7.742,71.075c-0.641,6.662,0.246,13.757,4.125,19.213
				c11.842,16.657,48.504,15.55,66.477,23.048c29.392,12.26,58.58,39.396,39.839,73.365c-17.684,32.052-58.86,38.071-91.914,40.096
				c-45.462,2.786-113.72-1.568-163.541-0.719"/>
			<path style="fill:none;stroke:#9FAFC9;stroke-miterlimit:10;" d="M361.389,58.841c0,2.041-1.654,3.695-3.695,3.695
				c-2.04,0-3.695-1.654-3.695-3.695c0-2.041,1.654-3.695,3.695-3.695C359.735,55.146,361.389,56.8,361.389,58.841z"/>
			<path style="fill:none;stroke:#9FAFC9;stroke-miterlimit:10;" d="M523.533,97.915c0,2.04-1.654,3.695-3.695,3.695
				c-2.041,0-3.695-1.654-3.695-3.695c0-2.041,1.654-3.695,3.695-3.695C521.878,94.22,523.533,95.874,523.533,97.915z"/>
			<path style="fill:none;stroke:#9FAFC9;stroke-miterlimit:10;" d="M664.628,319.951c0,2.04-1.654,3.695-3.695,3.695
				c-2.041,0-3.695-1.654-3.695-3.695c0-2.041,1.654-3.695,3.695-3.695C662.973,316.256,664.628,317.91,664.628,319.951z"/>
			<path style="fill:none;stroke:#9FAFC9;stroke-miterlimit:10;" d="M103.644,289.154c0,2.04-1.654,3.695-3.695,3.695
				c-2.041,0-3.695-1.654-3.695-3.695c0-2.041,1.654-3.695,3.695-3.695C101.989,285.459,103.644,287.113,103.644,289.154z"/>
			<path style="fill:#E9EFF4;" d="M379.822,77.933h-3.365c-0.604,0-1.094-0.49-1.094-1.094v-3.365c0-0.604,0.49-1.094,1.094-1.094
				h3.365c0.604,0,1.094,0.49,1.094,1.094v3.365C380.915,77.443,380.426,77.933,379.822,77.933z"/>
			<path style="fill:#E9EFF4;" d="M554.647,158.41h-3.365c-0.604,0-1.094-0.49-1.094-1.094v-3.365c0-0.604,0.49-1.094,1.094-1.094
				h3.365c0.604,0,1.094,0.49,1.094,1.094v3.365C555.741,157.92,555.251,158.41,554.647,158.41z"/>
			<path style="fill:#E9EFF4;" d="M149.778,143.984h-3.365c-0.604,0-1.094-0.49-1.094-1.094v-3.365c0-0.604,0.49-1.094,1.094-1.094
				h3.365c0.604,0,1.094,0.49,1.094,1.094v3.365C150.872,143.494,150.382,143.984,149.778,143.984z"/>
			<line style="fill:none;stroke:#9FAFC9;stroke-miterlimit:10;" x1="123.882" y1="113.884" x2="134.439" y2="113.884"/>
			<line style="fill:none;stroke:#9FAFC9;stroke-miterlimit:10;" x1="78.798" y1="272.532" x2="89.356" y2="272.532"/>
			<line style="fill:none;stroke:#9FAFC9;stroke-miterlimit:10;" x1="552.163" y1="135.018" x2="566.141" y2="135.018"/>
			<line style="fill:none;stroke:#9FAFC9;stroke-miterlimit:10;" x1="667.193" y1="264.855" x2="681.171" y2="264.855"/>
			<line style="fill:none;stroke:#9FAFC9;stroke-miterlimit:10;" x1="442.299" y1="68.119" x2="454.364" y2="68.119"/>
			<path style="fill:#E9EFF4;" d="M680.872,187.788h-3.365c-0.604,0-1.094-0.49-1.094-1.094v-3.365c0-0.604,0.49-1.094,1.094-1.094
				h3.365c0.604,0,1.094,0.49,1.094,1.094v3.365C681.966,187.298,681.476,187.788,680.872,187.788z"/>
		</g>
		<g>
			<g>
				<g>
					<path style="fill:#E9EFF4;" d="M296.916,368.112c-44.04-52.538-70.726-113.455-77.018-175.809
						c-2.388-23.668-1.554-48.529,11.37-70.115c1.47-2.455,5.928-2.74,7.858-0.509c30.42,35.174,54.582,73.967,64.257,115.487
						c9.851,42.277,4.431,85.783-1.016,128.663"/>
				</g>
				<g>
					<path style="fill:#E9EFF4;" d="M258.887,393.945c-20.079-70.394-69.322-124.338-131.408-154.993
						c-2.335-1.153-4.905,1.314-3.932,3.765c16.791,42.283,35.011,85.163,67.01,117.992c16.936,17.376,37.219,31.328,58.505,43.114"
						/>
				</g>
				<g>
					<path style="fill:#E9EFF4;" d="M250.07,410.843c-46.62-38.832-99.434-47.9-152.804-51.774
						c-2.259-0.164-3.586,2.523-2.051,4.188c18.585,20.172,42.839,34.745,68.518,44.54c27.596,10.526,56.912,15.805,86.225,19.424"
						/>
				</g>
				<g>
					<path style="fill:#E9EFF4;" d="M439.947,322.295c-2.246-59.104-7.413-98.301-23.17-155.31
						c-2.118-7.664-12.437-29.477-19.399-39.382c-1.096-1.559-3.53-1.076-3.935,0.786c-8.693,40.032-11.739,81.287-9.011,122.161
						c1.067,15.986,3.049,32.078,8.498,47.145c6.226,17.217,16.752,32.503,27.451,47.36"/>
				</g>
				<g>
					<path style="fill:#E9EFF4;" d="M430.601,381.793c7.591-47.388,2.848-95.707,7.921-143.364
						c5.073-47.658,22.122-97.383,63.283-127.854c1.345-0.996,3-2.029,4.687-1.632c2.179,0.513,2.839,2.955,3.063,4.966
						c2.856,25.56-0.61,51.328-4.806,76.739c-9.109,55.168-21.687,109.876-37.652,163.776"/>
				</g>
				<g>
					<path style="fill:#E9EFF4;" d="M460.233,395.955c9.095-79.55,49.355-156.851,100.524-218.538
						c0.68-0.819,2.02-0.474,2.213,0.573c14.629,79.665-20.325,166.454-86.281,213.545"/>
				</g>
				<g>
					<path style="fill:#E9EFF4;" d="M476.287,405.645c32.92-47.803,86.428-76.992,140.185-99.031
						c0.714-0.293,1.402,0.371,1.22,1.121c-17.893,73.923-78.045,107.052-136.291,114.714"/>
				</g>
				<path style="fill:none;stroke:#FFFFFF;stroke-miterlimit:10;" d="M97.886,361.595c39.272,16.753,144.471,47.505,144.471,47.505"
					/>
				<path style="fill:none;stroke:#FFFFFF;stroke-miterlimit:10;" d="M128.259,242.546c0,0,80.461,87.805,112.973,144.669"/>
				<path style="fill:none;stroke:#FFFFFF;stroke-miterlimit:10;" d="M233.18,127.074c0,0,23.776,139.703,71.933,230.46"/>
				<path style="fill:none;stroke:#FFFFFF;stroke-miterlimit:10;" d="M398.527,140.222c0,0,11.481,114.406,18.581,180.378"/>
				<path style="fill:none;stroke:#FFFFFF;stroke-miterlimit:10;" d="M499.637,124.573c0,0-53.085,137.835-57.876,223.601"/>
				<path style="fill:none;stroke:#FFFFFF;stroke-miterlimit:10;" d="M465.346,373.193c2.097-2.097,63.968-79.356,91.317-174.441"/>
				<path style="fill:none;stroke:#FFFFFF;stroke-miterlimit:10;" d="M485.205,409.615c45.709-14.221,97.242-45.324,121.836-88.203"
					/>
			</g>
			<g>
				<path style="fill:none;stroke:#9FAFC9;stroke-miterlimit:10;" d="M278.595,402.213c-22.321-29.906-47.739-57.499-75.715-82.196
					c-5.73-5.058-11.671-10.117-15.587-16.68s-5.493-15.066-1.995-21.862c2.977-5.784,9.194-9.413,15.599-10.551
					c6.405-1.138,13.006-0.078,19.294,1.589c10.41,2.76,20.474,7.255,28.803,14.082c14.688,12.038,22.863,30.291,28.081,48.55
					c5.218,18.259,8.007,37.222,14.541,55.053"/>
				<path style="fill:none;stroke:#9FAFC9;stroke-miterlimit:10;" d="M191.342,274.782c17.447,10.51,40.73,32.515,53.496,48.386
					c12.766,15.871,33.059,51.83,39.519,73.203"/>
				<path style="fill:none;stroke:#9FAFC9;stroke-miterlimit:10;" d="M219,334.839c0,0,20.642-6.35,31.571-3.936"/>
				<path style="fill:none;stroke:#9FAFC9;stroke-miterlimit:10;" d="M193.119,310.901c0,0,24.401-5.896,39.488-1.489"/>
				<path style="fill:none;stroke:#9FAFC9;stroke-miterlimit:10;" d="M225.18,301.565c0,0,2.688-18.366,0.02-27.573"/>
				<path style="fill:none;stroke:#9FAFC9;stroke-miterlimit:10;" d="M247.292,326.34c0,0,4.371-26.353,1.704-39.745"/>
				<path style="fill:none;stroke:#9FAFC9;stroke-miterlimit:10;" d="M256.914,340.545c0,0,6.651-27.718,5.1-39.53"/>
				<path style="fill:none;stroke:#9FAFC9;stroke-miterlimit:10;" d="M231.884,347.593c0,0,20.064-1.906,29.515,0.329"/>
				<path style="fill:none;stroke:#9FAFC9;stroke-miterlimit:10;" d="M215.797,293.325c0,0-15.322-3.63-32.589-1.66"/>
			</g>
			<g>
				<path style="fill:none;stroke:#9FAFC9;stroke-miterlimit:10;" d="M467.688,415.097c17.87-34.517,39.315-67.182,63.879-97.304
					c5.031-6.169,10.279-12.375,13.191-19.784c2.912-7.409,3.091-16.414-1.655-22.805c-4.04-5.44-11.044-8.115-17.82-8.199
					c-6.775-0.084-13.379,2.124-19.559,4.903c-10.23,4.6-19.811,10.926-27.214,19.353c-13.054,14.861-18.362,35.004-20.63,54.654
					c-2.268,19.649-1.92,39.609-5.613,59.041"/>
				<path style="fill:none;stroke:#9FAFC9;stroke-miterlimit:10;" d="M535.758,269.35c-16.148,13.758-36.346,40.319-46.776,58.792
					c-10.43,18.474-25.19,58.868-28.206,81.928"/>
				<path style="fill:none;stroke:#9FAFC9;stroke-miterlimit:10;" d="M528.929,321.151c0,0-19.953-1.024-39.438,6.1"/>
				<path style="fill:none;stroke:#9FAFC9;stroke-miterlimit:10;" d="M505.523,302.609c0,0-5.875-18.419-4.694-28.333"/>
				<path style="fill:none;stroke:#9FAFC9;stroke-miterlimit:10;" d="M486.999,331.818c0,0-8.959-26.341-8.487-40.556"/>
				<path style="fill:none;stroke:#9FAFC9;stroke-miterlimit:10;" d="M483.215,339.604c0,0-10.948-26.906-11.356-39.307"/>
				<path style="fill:none;stroke:#9FAFC9;stroke-miterlimit:10;" d="M506.435,351.048c0,0-20.942,1.442-30.276,5.34"/>
				<path style="fill:none;stroke:#9FAFC9;stroke-miterlimit:10;" d="M510.629,296.466c0,0,21.722-7.806,36.375-8.136"/>
				<path style="fill:none;stroke:#9FAFC9;stroke-miterlimit:10;" d="M516.295,268.121c0,0-1.847,14.408,0.294,21.032"/>
				<path style="fill:none;stroke:#9FAFC9;stroke-miterlimit:10;" d="M503.062,306.489c0,0,26.157-6.544,40.604-5.976"/>
			</g>
			<g>
				<path style="fill:none;stroke:#9FAFC9;stroke-miterlimit:10;" d="M433.899,305.224c14.79-44.309,34.168-87.085,57.725-127.422
					c4.825-8.261,9.9-16.607,11.978-25.945c2.078-9.339,0.614-20.064-6.212-26.768c-5.809-5.706-14.624-7.578-22.684-6.416
					c-8.06,1.162-15.489,5.013-22.309,9.464c-11.289,7.367-22.642,23.879-30.087,45.315c-7.799,22.456-15.237,82.267-8.607,122.605"
					/>
				<path style="fill:none;stroke:#9FAFC9;stroke-miterlimit:10;" d="M487.579,119.506c-16.611,19.342-35.646,54.638-44.589,78.513
					c-8.943,23.876-18.946,74.583-18.233,102.524"/>
				<path style="fill:none;stroke:#9FAFC9;stroke-miterlimit:10;" d="M432.537,236.222c0,0-15.179-15.733-17.929-26.198"/>
				<path style="fill:none;stroke:#9FAFC9;stroke-miterlimit:10;" d="M435.863,145.592c0,0,3.368,24.584,11.62,41.398"/>
				<path style="fill:none;stroke:#9FAFC9;stroke-miterlimit:10;" d="M449.6,130.152c0,0,1.911,28.698,6.295,39.106"/>
				<path style="fill:none;stroke:#9FAFC9;stroke-miterlimit:10;" d="M470.6,119.506c0,0-2.748,16.397-1.484,26.086"/>
				<path style="fill:none;stroke:#9FAFC9;stroke-miterlimit:10;" d="M461.607,158.505c0,0,21.385-1.56,42.402-8.8"/>
				<path style="fill:none;stroke:#9FAFC9;stroke-miterlimit:10;" d="M473.792,138.201c0,0,10.899-2.202,26.925-8.885"/>
				<path style="fill:none;stroke:#9FAFC9;stroke-miterlimit:10;" d="M429.349,252.845c0,0,14.081-9.108,30.884-15.042"/>
			</g>
		</g>
		<g>
			<g>
				<path d="M351.721,378.149c0,0,8.884,3.245,8.945,5.871c0.035,1.505-12.887,1.465-13.692,0.467
					c-1.288-1.596,0.95-6.007,0.95-6.007L351.721,378.149z"/>
				<path style="fill:#FFDACF;" d="M351.528,370.814l0.199,7.561c0,0-0.279,1.231-1.59,1.403c-1.311,0.172-2.214-1.298-2.214-1.298
					l-0.387-9.46"/>
				<path style="fill:#5481DB;" d="M366.627,202.5c0,0,6.478,20.435,4.048,76.758c-1.66,38.468-17.523,93.888-19.426,93.94
					c-1.903,0.052-3.608-0.183-3.608-0.183s-7.558-55.74-8.382-87.135c-1.27-48.339-18.577-59.426-13.05-84.547"/>
				<polygon style="fill:#75A1E9;" points="352.497,370.131 352.141,373.462 346.833,373.608 346.582,370.293 				"/>
			</g>
			<g>
				<path d="M319.681,378.902c0,0,8.884,3.245,8.944,5.871c0.035,1.505-12.887,1.465-13.692,0.467
					c-1.288-1.596,0.95-6.007,0.95-6.007L319.681,378.902z"/>
				<path style="fill:#FFDACF;" d="M319.488,371.567l0.198,7.562c0,0-0.279,1.231-1.59,1.403c-1.311,0.172-2.214-1.298-2.214-1.298
					l-0.387-9.46"/>
				<path style="fill:#5481DB;" d="M341.932,202.93c0,0-0.326,48.24-5.146,86.193c-2.15,16.928-15.55,82.454-16.93,84.81
					c-1.903,0.052-4.835,0.133-4.835,0.133s-6.634-61.606-7.458-93.001c-1.27-48.338-7.278-54.18-1.751-79.301"/>
				<polygon style="fill:#75A1E9;" points="320.583,370.88 320.227,374.211 314.918,374.357 314.667,371.043 				"/>
				<path style="fill:none;stroke:#4A578E;stroke-miterlimit:10;" d="M340.759,221.819c0,0-0.758,18.345-1.883,47.706"/>
			</g>
			<g>
				<g>
					<g>
						<path style="fill:#FFDACF;" d="M403.292,98.997l2.329-4.394c0,0-0.58-1.695-0.575-3.832c0.002-0.953,0.416-3.474,0.92-3.682
							c0.504-0.209,0.737,2.129,0.953,2.039c0.216-0.089,1.833-4.683,2.744-4.618c0.461,0.033-1.121,4.484-1.121,4.484
							s1.56-4.832,2.279-4.664c0.719,0.168-0.994,4.777-0.994,4.777s1.503-4.379,2.112-4.237c0.609,0.142-0.972,4.41-0.972,4.41
							s1.493-3.797,1.825-3.582c0.651,0.422-0.154,2.614-0.297,3.115c-0.367,1.291-1.27,5.646-3.386,6.774
							c-0.162,0.086-0.811,3.671-0.811,3.671"/>
						<g>
							<g>
								<path style="fill:#F7A794;" d="M407.057,89.683c0.493,0.633,1.053,1.336,1.322,2.099c0.341,0.965,0.026,1.739-0.311,2.637
									c-0.063,0.168,0.181,0.243,0.271,0.114c1.341-1.907,0.295-3.554-1.1-5.033C407.122,89.376,406.958,89.556,407.057,89.683
									L407.057,89.683z"/>
							</g>
						</g>
					</g>
				</g>
				<g>
					<path style="fill:#FFDACF;" d="M377.848,144.518c5.548-2.896,11.748-7.052,14.849-10.92
						c13.582-16.942,16.226-37.32,16.226-37.32l-3.504-2.322c0,0-14.596,18.573-20.498,24.262
						c-2.618,2.524-7.575,4.786-12.816,8.002"/>
				</g>
				<g>
					<path style="fill:#BFD7FA;" d="M372.91,125.115c-10.753,2.691-23.802,7.164-29.344,10.111l-8.465,0.339
						c-4.095,0.833-16.984,6.328-19.707,9.606c-7.351,8.851-9.583,35.471-11.971,61.641c20.792,6.529,49.347,8.439,64.789,0.484
						c-0.155-9.383-4.07-17.395-4.674-27.304c-0.626-10.259,1.638-16.774-2.054-26.524c2.836-1.78,10.672-5.013,18.213-8.95
						L372.91,125.115z"/>
				</g>
				<polygon style="fill:#FFFFFF;" points="369.094,125.901 375.927,146.809 380.947,144.518 374.137,124.53 				"/>
			</g>
			<g>
				<path d="M332.323,100.578c-5.427,2.798-8.169,8.63-7.855,14.748c0.341,6.642,4.362,12.923,12.914,12.456
					c1.127-0.062,2.254-0.079,3.359-0.305c1.839-0.376,3.667-0.926,5.263-1.906c2.632-1.615,4.472-4.336,5.33-7.287
					c0.858-2.952,0.787-6.119,0.157-9.131c-0.346-1.653-0.886-3.326-2.01-4.595c-0.569-0.642-1.276-1.179-1.709-1.931
					c-0.399-0.694-0.798-1.147-1.479-1.623c-1.262-0.881-2.776-1.344-4.292-1.542C338.926,99.061,335.074,99.159,332.323,100.578z"
					/>
			</g>
			<path style="fill:#FF8080;" d="M354.666,118.263c0.283,2.784-1.529,5.258-4.048,5.526c-2.519,0.268-4.79-1.772-5.073-4.555
				c-0.283-2.784,1.529-5.258,4.048-5.526C352.111,113.44,354.383,115.479,354.666,118.263z"/>
			<path style="fill:#FFB0B0;" d="M352.502,118.706c0.194,1.908-0.983,3.597-2.63,3.772c-1.646,0.175-3.138-1.23-3.332-3.138
				c-0.194-1.908,0.983-3.597,2.629-3.772C350.816,115.393,352.308,116.798,352.502,118.706z"/>
			<g>
				<path style="fill:#FFDACF;" d="M343.566,135.226l-0.31-10.921l-6.195,0.667l-2.112,11.077c0,0,1.699,1.88,5.27,1.388
					C343.308,137.011,343.566,135.226,343.566,135.226z"/>
			</g>
			<path style="fill:#FFFFFF;" d="M335.491,133.213c0.962,1.728,4.73,4.224,4.73,4.224l-3.579,3.959l-3.429-6.272L335.491,133.213z"
				/>
			<path style="fill:#FFFFFF;" d="M343.517,133.477c-0.693,2.193-3.297,3.959-3.297,3.959l2.415,3.012l2.475-5.876L343.517,133.477z
				"/>
			<g>
				<path style="fill:#FFDACF;" d="M333.24,119.84c-0.249-4.282,1.018-8.88,3.279-11.397c2.254-2.509,6.479-2.878,9.59-2.454
					c1.066,0.145,2.128,0.505,2.963,1.199c3.071,2.553,2.867,8.438,2.651,12.044c-0.183,3.062-1.086,6.152-2.998,8.516
					c-0.605,0.748-1.324,1.429-2.202,1.797c-2.943,1.231-7.134,0.555-9.639-1.435C334.438,126.166,333.417,122.896,333.24,119.84z"
					/>
			</g>
			<g>
				<path d="M331.861,123.289c-1.138,0.532-2.905,0.917-3.789-0.333c-0.707-0.998-0.091-2.497,0.157-3.559
					c0.806-3.448,1.803-6.849,2.986-10.181c0.612-1.722,1.285-3.448,2.353-4.919c2.094-2.883,8.045-4.221,11.542-3.889
					c3.845-0.255,9.969,6.009,6.618,13.294c-0.498-1.783-1.204-2.667-2.517-4.172c-1.267,1.268-4.366,4.056-12.496,4.056
					c-1.747,1.669-0.395,5.05-1.66,7.125C334.328,121.906,333.113,122.704,331.861,123.289z"/>
			</g>
			<g>
				<path style="fill:#FC8975;" d="M335.836,120.57c0.158-0.995-0.477-1.63-1.137-1.7c-1.769-0.187-2.296,2.59-1.611,3.852
					c0.509,0.936,1.793,1.708,2.457,0.58"/>
			</g>
			<g>
				<g>
					<g>
						<path style="fill:#081466;" d="M338.803,127.08c-0.434-0.039-0.87-0.106-1.3-0.213c-0.988-0.247-2.364-0.823-3.313-2.166
							c-0.342-0.485-0.516-0.939-0.53-1.389c-0.004-0.113,0.083-0.208,0.193-0.212c0.113-0.002,0.203,0.085,0.207,0.198
							c0.012,0.366,0.16,0.746,0.455,1.162c0.878,1.243,2.161,1.778,3.083,2.008c1.237,0.308,2.557,0.268,3.697,0.205
							c0.111-0.007,0.205,0.081,0.211,0.194s-0.079,0.209-0.189,0.216C340.536,127.126,339.674,127.159,338.803,127.08z"/>
					</g>
					<g>
						<path style="fill:#081466;" d="M342.213,126.365c-0.335-0.185-0.765-0.179-1.128-0.061c-1.273,0.413,0.107,2.068,1.257,1.217
							c0.095-0.07,0.179-0.154,0.232-0.254C342.741,126.956,342.548,126.55,342.213,126.365z"/>
					</g>
				</g>
				<g>
					<g>
						<g>
							<path style="fill:#FF8080;" d="M332.049,115.306c0.295-2.836,1.278-7.524,3.021-9.751c2.24-2.863,5.495-5.48,8.37-5.48
								c0.996-0.106,1.672,0.333,1.672,0.333c-2.962,0.718-5.496,2.162-7.838,4.639c-2.342,2.477-3.661,7.309-3.725,10.754"/>
						</g>
					</g>
				</g>
				<path style="fill:#FF8080;" d="M337.357,119.158c0.257,2.532-1.391,4.782-3.682,5.025c-2.291,0.244-4.356-1.611-4.614-4.143
					c-0.258-2.532,1.391-4.782,3.681-5.025C335.034,114.772,337.099,116.627,337.357,119.158z"/>
				<path style="fill:#FFB0B0;" d="M335.389,119.561c0.176,1.736-0.894,3.271-2.391,3.431c-1.497,0.159-2.854-1.118-3.03-2.854
					c-0.176-1.735,0.894-3.271,2.391-3.431C333.856,116.548,335.212,117.826,335.389,119.561z"/>
			</g>
			<g>
				<path d="M331.446,102.815c0.369-0.655,0.248-1.476,0.003-2.187c-1.013-2.936-4.106-4.993-7.209-4.857
					c-3.103,0.136-5.98,2.409-6.894,5.377c-0.223,0.723-0.338,1.5-0.169,2.238c0.265,1.152,1.204,2.062,2.278,2.558
					c1.073,0.496,2.274,0.635,3.455,0.708c1.608,0.099,3.279,0.076,4.748-0.585c1.469-0.661,2.689-2.102,2.643-3.712"/>
			</g>
			<g>
				<path d="M319,102.93c0.765,0.954,0.759,2.4,0.114,3.439c-0.645,1.039-1.837,1.671-3.054,1.794
					c-1.217,0.123-2.448-0.223-3.522-0.808c-1.041-0.566-2.027-1.484-2.124-2.665c-0.289-3.518,3.828-7.838,8.282-4.182"/>
			</g>
			<g>
				<path d="M312.749,105.443c0.161,0.697-0.358,1.997-0.432,2.709c-0.075,0.711-0.36,1.422-0.897,1.894
					c-0.746,0.654-1.822,0.745-2.814,0.728c-0.759-0.013-1.535-0.073-2.231-0.377c-0.9-0.393-1.609-1.198-1.886-2.139
					c-0.277-0.941-0.117-2.002,0.426-2.82C306.613,102.879,311.229,102.494,312.749,105.443"/>
			</g>
			<g>
				<path d="M305.992,109.714c0.467,1.621-0.766,3.191-1.205,4.82c-0.549,2.035,0.166,4.176,0.22,6.284
					c0.003,0.115-0.003,0.246-0.09,0.322c-0.059,0.051-0.141,0.063-0.219,0.073c-2.097,0.26-4.321,0.113-6.165-0.92
					c-1.844-1.033-3.207-3.095-2.964-5.194c0.142-1.222,0.789-2.328,1.539-3.303c1.121-1.458,2.553-2.741,4.291-3.344
					c1.738-0.602,3.812-0.425,5.222,0.755"/>
			</g>
			<line style="fill:none;stroke:#5481DB;stroke-miterlimit:10;" x1="361.485" y1="153.468" x2="358.316" y2="145.426"/>
			<path style="fill:none;stroke:#F7A794;stroke-linejoin:round;stroke-miterlimit:10;" d="M346.746,117.201
				c0,0,1.31,3.444,1.234,4.228c-0.076,0.784-2.47,0.529-2.47,0.529"/>
			<path d="M341.81,117.691c0.069,0.615-0.2,1.15-0.6,1.195c-0.401,0.045-0.782-0.417-0.851-1.032
				c-0.069-0.615,0.2-1.15,0.601-1.195C341.36,116.615,341.74,117.077,341.81,117.691z"/>
			<path d="M350.133,117.617c0.069,0.615-0.2,1.15-0.6,1.194c-0.401,0.045-0.781-0.417-0.85-1.031c-0.069-0.615,0.2-1.15,0.6-1.195
				C349.683,116.54,350.064,117.002,350.133,117.617z"/>
			<path style="fill:#FFFFFF;" d="M342.82,124.782l4.702-0.422c0,0,0.025,3.012-2.107,3.079
				C342.57,127.527,342.82,124.782,342.82,124.782z"/>
			<g>
				<path d="M348.353,114.396c0.064-0.109,0.186-0.154,0.298-0.178c0.892-0.196,1.807,0.355,2.099,1.265"/>
			</g>
			<g>
				<path d="M342.176,114.453c-0.053-0.115-0.185-0.17-0.307-0.204c-0.98-0.273-2.118,0.204-2.61,1.095"/>
			</g>
			<g>
				<path style="fill:#FFFFFF;stroke:#BFD7FA;stroke-linejoin:round;stroke-miterlimit:10;" d="M234.497,61.636
					c13.449-8.332,31.106-4.183,39.437,9.265c5.136,8.29,5.515,18.173,1.912,26.491l6.548,5.809l-9.568-0.474
					c-2.132,2.963-4.861,5.57-8.157,7.612c-13.449,8.332-31.106,4.184-39.437-9.265C216.9,87.624,221.048,69.967,234.497,61.636z"/>
				<g>
					<polygon style="fill:#BFD7FA;" points="261.911,96.84 237.084,96.494 234.341,78.646 264.346,78.656 					"/>
					<polygon style="fill:#BFD7FA;" points="264.346,78.656 234.341,78.646 249.348,66.316 					"/>
					<rect x="238.883" y="76.889" style="fill:#FFFFFF;" width="20.477" height="17.297"/>
					<polygon style="fill:#E0EDFC;" points="234.341,78.646 234.335,98.154 249.34,89.093 					"/>
					<polygon style="fill:#E0EDFC;" points="264.346,78.656 264.34,98.163 249.34,89.093 					"/>
					<polygon style="fill:#E0EDFC;" points="264.34,98.163 234.335,98.154 249.341,85.824 					"/>
					<polyline style="fill:none;stroke:#5481DB;stroke-width:0.5;stroke-miterlimit:10;" points="234.335,98.154 249.341,85.824 
						264.34,98.163 					"/>
					
						<line style="fill:none;stroke:#5481DB;stroke-width:0.5;stroke-miterlimit:10;" x1="251.494" y1="87.595" x2="264.346" y2="78.656"/>
				</g>
				
					<line style="fill:none;stroke:#5481DB;stroke-width:0.5;stroke-miterlimit:10;" x1="247.189" y1="87.595" x2="234.341" y2="78.646"/>
			</g>
		</g>
		<g>
			<g>
				<g>
					<path style="fill:#A33646;" d="M522.474,370.573c1.563,0.423,2.654,1.592,3.375,2.867c0.799,1.414,1.365,2.98,1.287,4.656
						c0.632-0.19,1.066-0.747,1.41-1.279c0.854-1.321,1.598-2.833,1.49-4.349c-0.123-1.725-1.668-3.712-2.895-4.878
						c-0.656-0.623-1.266-0.365-2.244-0.125"/>
				</g>
				<g>
					<path style="fill:#E54A52;" d="M527.115,367.548c-0.579-1.234-2.68-1.854-4.324-1.665c-4.777,1.368-7.5,10.134-6.202,13.465
						c0.674,0.948,2.051,1.294,3.339,1.162c1.112-0.114,1.648-0.296,2.546-0.681c0.252-0.108,0.393-0.362,0.328-0.594
						C522.245,377.23,522.122,371.987,527.115,367.548z"/>
				</g>
				<g>
					<path style="fill:#A33646;" d="M530.858,373.792c1.563,0.423,2.654,1.592,3.375,2.867c0.799,1.414,1.365,2.98,1.287,4.656
						c0.633-0.19,1.066-0.747,1.41-1.279c0.854-1.321,1.598-2.833,1.49-4.349c-0.123-1.725-1.668-3.712-2.895-4.878
						c-0.656-0.623-1.266-0.365-2.244-0.126"/>
				</g>
				<g>
					<path style="fill:#E54A52;" d="M535.5,370.768c-0.579-1.234-2.68-1.855-4.324-1.665c-4.777,1.368-7.5,10.134-6.202,13.465
						c0.674,0.948,2.051,1.294,3.339,1.162c1.112-0.114,1.648-0.296,2.546-0.681c0.252-0.108,0.393-0.362,0.328-0.594
						C530.63,380.449,530.506,375.206,535.5,370.768z"/>
				</g>
				<g>
					<path style="fill:#A33646;" d="M540.604,375.615c1.563,0.423,2.654,1.592,3.375,2.867c0.799,1.414,1.365,2.98,1.287,4.656
						c0.633-0.19,1.066-0.747,1.41-1.279c0.854-1.321,1.598-2.833,1.49-4.349c-0.123-1.725-1.668-3.712-2.895-4.878
						c-0.656-0.623-1.266-0.365-2.244-0.126"/>
				</g>
				<g>
					<path style="fill:#E54A52;" d="M545.245,372.59c-0.579-1.234-2.68-1.854-4.324-1.665c-4.777,1.368-7.5,10.134-6.202,13.465
						c0.674,0.948,2.051,1.294,3.339,1.162c1.112-0.114,1.648-0.296,2.546-0.681c0.252-0.108,0.393-0.362,0.328-0.594
						C540.376,382.272,540.252,377.029,545.245,372.59z"/>
				</g>
				<g>
					<path style="fill:#A33646;" d="M549.419,376.54c1.56,0.434,2.643,1.609,3.355,2.889c0.79,1.419,1.345,2.989,1.256,4.664
						c0.634-0.185,1.071-0.74,1.419-1.27c0.862-1.315,1.617-2.822,1.519-4.339c-0.111-1.726-1.643-3.723-2.863-4.897
						c-0.652-0.628-1.264-0.373-2.243-0.14"/>
				</g>
				<g>
					<path style="fill:#E54A52;" d="M554.08,373.546c-0.571-1.238-2.668-1.872-4.313-1.694c-4.786,1.337-7.567,10.084-6.29,13.424
						c0.667,0.953,2.043,1.308,3.332,1.184c1.112-0.107,1.65-0.286,2.55-0.664c0.253-0.106,0.395-0.359,0.332-0.592
						C549.147,383.195,549.058,377.952,554.08,373.546z"/>
				</g>
				<g>
					<path style="fill:#A33646;" d="M557.859,379.057c1.537,0.511,2.56,1.739,3.207,3.053c0.718,1.457,1.194,3.052,1.022,4.721
						c0.642-0.154,1.107-0.685,1.48-1.197c0.927-1.27,1.756-2.738,1.734-4.258c-0.025-1.729-1.456-3.8-2.615-5.034
						c-0.62-0.659-1.243-0.436-2.233-0.252"/>
				</g>
				<g>
					<path style="fill:#E54A52;" d="M562.664,376.3c-0.508-1.265-2.571-2.003-4.223-1.907c-4.847,1.096-8.06,9.694-6.952,13.093
						c0.619,0.985,1.975,1.408,3.268,1.349c1.116-0.051,1.662-0.203,2.58-0.536c0.257-0.094,0.413-0.339,0.361-0.575
						C557.255,385.691,557.428,380.449,562.664,376.3z"/>
				</g>
				<g>
					<path style="fill:#A33646;" d="M566.836,383.991c1.266,1.01,1.803,2.515,1.957,3.972c0.171,1.615,0.068,3.277-0.67,4.784
						c0.656,0.077,1.275-0.261,1.803-0.613c1.308-0.873,2.592-1.964,3.096-3.398c0.573-1.632-0.055-4.069-0.718-5.627
						c-0.354-0.833-1.016-0.838-2.009-1.007"/>
				</g>
				<g>
					<path style="fill:#E54A52;" d="M572.297,383.06c-0.041-1.362-1.722-2.767-3.305-3.247c-4.927-0.643-10.911,6.318-11.043,9.89
						c0.241,1.138,1.368,2.003,2.602,2.394c1.065,0.337,1.63,0.383,2.607,0.387c0.274,0.001,0.504-0.176,0.537-0.415
						C563.979,390.008,565.951,385.148,572.297,383.06z"/>
				</g>
				<g>
					<path style="fill:#A33646;" d="M575.723,388.549c1.266,1.01,1.803,2.515,1.957,3.972c0.171,1.615,0.068,3.277-0.67,4.784
						c0.656,0.077,1.275-0.261,1.802-0.613c1.308-0.873,2.593-1.964,3.096-3.398c0.573-1.632-0.055-4.069-0.718-5.627
						c-0.354-0.833-1.017-0.838-2.009-1.007"/>
				</g>
				<g>
					<path style="fill:#E54A52;" d="M581.184,387.619c-0.041-1.363-1.722-2.767-3.305-3.247c-4.927-0.643-10.91,6.318-11.043,9.89
						c0.241,1.138,1.368,2.003,2.602,2.394c1.065,0.337,1.63,0.383,2.607,0.387c0.274,0.001,0.504-0.176,0.537-0.415
						C572.867,394.566,574.838,389.707,581.184,387.619z"/>
				</g>
				<g>
					<path style="fill:#A33646;" d="M585.385,393.866c1.014,1.21,1.203,2.779,1.027,4.234c-0.195,1.613-0.669,3.224-1.73,4.573
						c0.626,0.19,1.309-0.035,1.905-0.288c1.479-0.628,2.982-1.475,3.798-2.794c0.928-1.5,0.859-3.999,0.559-5.641
						c-0.16-0.878-0.808-0.998-1.744-1.336"/>
				</g>
				<g>
					<path style="fill:#E54A52;" d="M590.948,393.903c0.266-1.343-1.067-3.011-2.512-3.757c-4.686-1.486-12.114,4.3-13.046,7.779
						c-0.019,1.157,0.891,2.201,2.014,2.798c0.969,0.515,1.512,0.658,2.469,0.832c0.268,0.049,0.534-0.085,0.62-0.313
						C581.235,399.27,584.258,394.848,590.948,393.903z"/>
				</g>
				<g>
					<path style="fill:#A33646;" d="M590.755,402.612c0.422,1.456-0.075,2.973-0.86,4.262c-0.871,1.43-2,2.766-3.56,3.664
						c0.498,0.383,1.227,0.401,1.888,0.364c1.639-0.093,3.394-0.38,4.714-1.331c1.502-1.083,2.528-2.807,2.932-5.041
						c0.159-0.878-0.322-1.192-1.043-1.815"/>
				</g>
				<g>
					<path style="fill:#E54A52;" d="M595.893,404.486c0.821-1.156,0.3-3.143-0.719-4.312c-3.706-2.928-13.063-0.026-15.415,2.889
						c-0.513,1.066-0.116,2.334,0.668,3.259c0.677,0.798,1.119,1.11,1.931,1.588c0.228,0.134,0.531,0.098,0.708-0.085
						C584.597,406.244,589.29,403.147,595.893,404.486z"/>
				</g>
				<g>
					<path style="fill:#A33646;" d="M592.691,409.965c-0.202,1.493-1.286,2.75-2.546,3.705c-1.398,1.059-2.997,1.948-4.821,2.293
						c0.308,0.515,0.981,0.762,1.613,0.936c1.567,0.432,3.323,0.72,4.943,0.249c1.844-0.535,4.041-2.106,5.114-4.245
						c0.566-0.737-0.129-0.745-0.548-1.554"/>
				</g>
				<g>
					<path style="fill:#E54A52;" d="M596.994,412.903c0.969-1.064,0.717-3.091-0.14-4.356c-3.29-3.29-12.97-1.372-15.694,1.28
						c-0.651,1.006-0.427,2.306,0.229,3.306c0.566,0.862,0.963,1.218,1.706,1.776c0.208,0.156,0.514,0.152,0.715-0.012
						C585.542,413.485,590.615,410.893,596.994,412.903z"/>
				</g>
				<g>
					<path style="fill:#A33646;" d="M590.426,417.488c-0.719,1.364-2.193,2.263-3.728,2.826c-1.702,0.625-3.536,1.033-5.392,0.864
						c0.111,0.574,0.664,0.993,1.203,1.33c1.337,0.838,2.904,1.591,4.611,1.586c1.942-0.005,4.585-0.899,6.36-2.639
						c0.798-0.546,0.14-0.743,0.028-1.627"/>
				</g>
				<g>
					<path style="fill:#E54A52;" d="M593.479,421.456c1.297-0.746,1.773-2.742,1.405-4.179c-1.966-4.025-11.845-4.845-15.371-3.067
						c-0.974,0.778-1.219,2.076-0.949,3.205c0.233,0.974,0.486,1.421,0.995,2.154c0.143,0.206,0.435,0.285,0.684,0.184
						C582.387,418.883,588.125,417.804,593.479,421.456z"/>
				</g>
				<g>
					<path style="fill:#A33646;" d="M585.671,425.013c-1.374,0.894-3.158,1.062-4.812,0.91c-1.835-0.169-3.667-0.583-5.203-1.514
						c-0.215,0.55,0.042,1.151,0.331,1.674c0.717,1.299,1.683,2.62,3.183,3.335c1.707,0.813,4.514,1.142,7.02,0.363
						c0.998-0.143,0.528-0.594,0.911-1.416"/>
				</g>
				<g>
					<path style="fill:#E54A52;" d="M586.19,429.783c1.545-0.109,3.05-1.66,3.51-3.077c0.467-4.362-7.758-9.242-11.822-9.168
						c-1.279,0.273-2.201,1.308-2.579,2.413c-0.326,0.954-0.348,1.452-0.3,2.31c0.013,0.241,0.227,0.433,0.5,0.45
						C577.855,422.851,583.479,424.322,586.19,429.783z"/>
				</g>
				<g>
					<path style="fill:#A33646;" d="M577.032,429.249c-1.614,0.496-3.374,0.191-4.903-0.386c-1.695-0.639-3.306-1.513-4.459-2.802
						c-0.391,0.47-0.348,1.11-0.249,1.685c0.247,1.428,0.723,2.941,1.915,4.015c1.356,1.222,3.926,2.268,6.582,2.178
						c1.001,0.124,0.705-0.429,1.348-1.115"/>
				</g>
				<g>
					<path style="fill:#E54A52;" d="M575.919,433.939c1.512,0.299,3.473-0.79,4.389-2.023c1.917-4.044-4.292-10.85-8.198-11.838
						c-1.313-0.073-2.543,0.675-3.276,1.632c-0.633,0.826-0.821,1.296-1.065,2.128c-0.068,0.233,0.07,0.473,0.326,0.56
						C570.297,425.145,575.172,428.016,575.919,433.939z"/>
				</g>
				<g>
					<path style="fill:#A33646;" d="M565.749,431.748c-1.709-0.004-3.255-0.806-4.479-1.796c-1.357-1.099-2.546-2.393-3.147-3.946
						c-0.546,0.329-0.748,0.945-0.872,1.517c-0.307,1.419-0.429,2.985,0.289,4.347c0.817,1.549,2.846,3.286,5.385,3.977
						c0.897,0.41,0.827-0.199,1.693-0.658"/>
				</g>
				<g>
					<path style="fill:#E54A52;" d="M562.927,435.847c1.313,0.724,3.574,0.269,4.904-0.625c3.336-3.254,0.051-11.488-3.259-13.561
						c-1.211-0.453-2.654-0.106-3.707,0.582c-0.909,0.594-1.264,0.982-1.809,1.696c-0.153,0.2-0.112,0.467,0.096,0.623
						C560.947,425.91,564.461,430.043,562.927,435.847z"/>
				</g>
				<g>
					<path style="fill:#A33646;" d="M555.023,433.024c-1.602-0.523-2.737-1.746-3.496-3.047c-0.842-1.443-1.448-3.02-1.401-4.66
						c-0.641,0.143-1.073,0.66-1.414,1.158c-0.846,1.238-1.576,2.671-1.437,4.167c0.158,1.702,1.378,3.949,3.49,5.369
						c0.681,0.657,0.854,0.065,1.847-0.103"/>
				</g>
				<g>
					<path style="fill:#E54A52;" d="M550.764,436.012c0.948,1.078,3.248,1.339,4.848,0.904c4.409-2.039,4.565-10.764,2.273-13.716
						c-0.959-0.793-2.449-0.907-3.707-0.581c-1.086,0.281-1.573,0.537-2.364,1.041c-0.222,0.141-0.289,0.404-0.155,0.614
						C552.813,426.086,554.485,431.031,550.764,436.012z"/>
				</g>
				<g>
					<path style="fill:#A33646;" d="M546.819,433.024c-1.602-0.523-2.737-1.746-3.496-3.047c-0.842-1.443-1.448-3.02-1.401-4.66
						c-0.641,0.143-1.073,0.66-1.414,1.158c-0.845,1.238-1.576,2.671-1.437,4.167c0.158,1.702,1.379,3.949,3.49,5.369
						c0.681,0.657,0.854,0.065,1.847-0.103"/>
				</g>
				<g>
					<path style="fill:#E54A52;" d="M542.56,436.012c0.948,1.078,3.247,1.339,4.848,0.904c4.409-2.039,4.565-10.764,2.273-13.716
						c-0.959-0.793-2.449-0.907-3.707-0.581c-1.086,0.281-1.572,0.537-2.364,1.041c-0.222,0.141-0.289,0.404-0.155,0.614
						C544.608,426.086,546.28,431.031,542.56,436.012z"/>
				</g>
				<g>
					<path style="fill:#A33646;" d="M538.238,433.024c-1.602-0.523-2.737-1.746-3.496-3.047c-0.842-1.443-1.448-3.02-1.401-4.66
						c-0.642,0.143-1.073,0.66-1.414,1.158c-0.846,1.238-1.576,2.671-1.437,4.167c0.158,1.702,1.379,3.949,3.49,5.369
						c0.681,0.657,0.854,0.065,1.847-0.103"/>
				</g>
				<g>
					<path style="fill:#E54A52;" d="M533.979,436.012c0.948,1.078,3.247,1.339,4.848,0.904c4.409-2.039,4.565-10.764,2.273-13.716
						c-0.959-0.793-2.449-0.907-3.707-0.581c-1.086,0.281-1.573,0.537-2.364,1.041c-0.222,0.141-0.289,0.404-0.155,0.614
						C536.027,426.086,537.699,431.031,533.979,436.012z"/>
				</g>
				<g>
					<path style="fill:#A33646;" d="M529.657,433.024c-1.602-0.523-2.737-1.746-3.496-3.047c-0.842-1.443-1.448-3.02-1.401-4.66
						c-0.642,0.143-1.073,0.66-1.414,1.158c-0.846,1.238-1.576,2.671-1.437,4.167c0.158,1.702,1.378,3.949,3.49,5.369
						c0.681,0.657,0.854,0.065,1.847-0.103"/>
				</g>
				<g>
					<path style="fill:#E54A52;" d="M525.398,436.012c0.948,1.078,3.247,1.339,4.848,0.904c4.409-2.039,4.565-10.764,2.273-13.716
						c-0.959-0.793-2.448-0.907-3.707-0.581c-1.086,0.281-1.572,0.537-2.364,1.041c-0.222,0.141-0.289,0.404-0.155,0.614
						C527.446,426.086,529.118,431.031,525.398,436.012z"/>
				</g>
				<g>
					<path style="fill:#A33646;" d="M324.298,303.461c-1.21,0.914-2.804,0.99-4.289,0.716c-1.647-0.304-3.297-0.882-4.693-2.019
						c-0.18,0.602,0.063,1.29,0.334,1.893c0.671,1.498,1.565,3.036,2.925,3.93c1.547,1.017,3.524,1.361,5.755,0.941
						c0.877-0.165,0.999-0.726,1.323-1.622"/>
				</g>
				<g>
					<path style="fill:#E54A52;" d="M324.379,308.93c1.373,0.355,3.044-0.84,3.772-2.21c1.414-4.506-4.635-12.213-8.197-13.371
						c-1.179-0.099-2.222,0.724-2.806,1.787c-0.504,0.917-0.638,1.441-0.795,2.371c-0.044,0.26,0.098,0.531,0.332,0.632
						C318.708,299.004,323.275,302.284,324.379,308.93z"/>
				</g>
				<g>
					<path style="fill:#A33646;" d="M318.119,307.892c-1.466,0.344-3.028-0.221-4.369-1.057c-1.488-0.928-2.889-2.105-3.862-3.686
						c-0.371,0.472-0.362,1.189-0.3,1.841c0.155,1.618,0.513,3.361,1.53,4.707c1.158,1.532,3.409,3.024,5.79,3.264
						c0.89,0.266,0.65-0.386,1.257-1.066"/>
				</g>
				<g>
					<path style="fill:#E54A52;" d="M316.909,312.961c1.339,0.526,3.143-0.432,4.02-1.684c1.9-4.247-3.344-12.606-6.794-14.205
						c-1.172-0.25-2.306,0.424-3.006,1.393c-0.604,0.836-0.794,1.334-1.05,2.228c-0.072,0.25,0.041,0.535,0.266,0.664
						C312.28,302.469,316.511,306.285,316.909,312.961z"/>
				</g>
				<g>
					<path style="fill:#A33646;" d="M310.283,308.46c-1.53-0.185-2.896-1.242-3.97-2.475c-1.191-1.367-2.227-2.935-2.73-4.729
						c-0.496,0.309-0.691,0.974-0.814,1.598c-0.306,1.548-0.451,3.281,0.163,4.874c0.697,1.812,2.475,3.962,4.734,5.001
						c0.794,0.551,0.745-0.134,1.53-0.554"/>
				</g>
				<g>
					<path style="fill:#E54A52;" d="M307.665,312.728c1.16,0.945,3.194,0.678,4.405-0.178c3.059-3.272,0.301-12.794-2.617-15.454
						c-1.075-0.632-2.374-0.399-3.332,0.257c-0.827,0.566-1.154,0.96-1.657,1.698c-0.141,0.207-0.111,0.508,0.072,0.704
						C306.113,301.447,309.167,306.423,307.665,312.728z"/>
				</g>
				<g>
					<path style="fill:#A33646;" d="M301.556,306.702c-1.325-0.965-2.119-2.571-2.567-4.171c-0.497-1.774-0.763-3.634-0.442-5.401
						c-0.591-0.004-1.06,0.45-1.446,0.906c-0.958,1.133-1.848,2.507-1.98,4.163c-0.151,1.885,0.543,4.625,2.165,6.688
						c0.489,0.881,0.743,0.282,1.648,0.346"/>
				</g>
				<g>
					<path style="fill:#E54A52;" d="M297.286,308.887c0.653,1.405,2.639,2.257,4.126,2.182c4.241-1.12,5.867-10.544,4.348-14.314
						c-0.711-1.098-2.007-1.59-3.174-1.548c-1.007,0.036-1.48,0.193-2.265,0.544c-0.22,0.098-0.324,0.366-0.242,0.627
						C300.789,298.628,301.421,304.407,297.286,308.887z"/>
				</g>
				<g>
					<path style="fill:#A33646;" d="M294.518,300.141c-1.039-1.331-1.382-3.084-1.388-4.718c-0.007-1.812,0.234-3.628,1.028-5.165
						c-0.578-0.197-1.161,0.071-1.663,0.369c-1.246,0.74-2.49,1.725-3.068,3.222c-0.658,1.703-0.719,4.477,0.313,6.926
						c0.241,0.979,0.652,0.505,1.522,0.861"/>
				</g>
				<g>
					<path style="fill:#E54A52;" d="M289.74,300.774c0.26,1.519,1.977,2.962,3.455,3.379c4.461,0.348,8.605-7.88,8.136-11.881
						c-0.4-1.253-1.538-2.135-2.694-2.479c-0.997-0.297-1.503-0.305-2.368-0.236c-0.242,0.019-0.417,0.234-0.407,0.504
						C295.95,292.385,295.006,297.964,289.74,300.774z"/>
				</g>
				<g>
					<path style="fill:#A33646;" d="M287.028,291.154c-0.503-1.634-0.194-3.347,0.389-4.81c0.647-1.622,1.531-3.141,2.837-4.174
						c-0.476-0.424-1.124-0.434-1.707-0.383c-1.446,0.127-2.978,0.474-4.066,1.564c-1.237,1.24-2.296,3.692-2.203,6.322
						c-0.125,0.978,0.435,0.731,1.13,1.422"/>
				</g>
				<g>
					<path style="fill:#E54A52;" d="M282.277,289.672c-0.302,1.469,0.801,3.493,2.05,4.499c4.096,2.222,10.987-3.354,11.987-7.13
						c0.073-1.291-0.685-2.566-1.654-3.368c-0.836-0.692-1.313-0.917-2.155-1.225c-0.236-0.086-0.479,0.031-0.567,0.276
						C291.182,284.838,288.275,289.418,282.277,289.672z"/>
				</g>
				<g>
					<path style="fill:#A33646;" d="M281.28,282.067c0.025-1.685,0.857-3.131,1.875-4.242c1.129-1.232,2.455-2.278,4.035-2.718
						c-0.326-0.571-0.948-0.83-1.525-1.008c-1.433-0.441-3.018-0.714-4.406-0.139c-1.579,0.655-3.364,2.486-4.095,4.924
						c-0.426,0.845,0.191,0.835,0.645,1.733"/>
				</g>
				<g>
					<path style="fill:#E54A52;" d="M277.165,278.884c-0.749,1.225-0.317,3.499,0.572,4.898c3.253,3.607,11.633,1.172,13.774-1.891
						c0.473-1.151,0.141-2.607-0.543-3.713c-0.59-0.954-0.979-1.343-1.695-1.949c-0.201-0.17-0.471-0.156-0.632,0.034
						C287.252,277.9,283.023,280.962,277.165,278.884z"/>
				</g>
				<g>
					<path style="fill:#A33646;" d="M277.953,273.327c0.303-1.658,1.362-2.947,2.55-3.874c1.317-1.028,2.798-1.841,4.429-2.014
						c-0.227-0.616-0.798-0.975-1.338-1.246c-1.34-0.672-2.858-1.203-4.322-0.865c-1.665,0.385-3.728,1.897-4.852,4.18
						c-0.56,0.763,0.05,0.855,0.35,1.816"/>
				</g>
				<g>
					<path style="fill:#E54A52;" d="M274.42,269.508c-0.941,1.084-0.891,3.398-0.245,4.925c2.613,4.095,11.279,3.077,13.897,0.41
						c0.657-1.056,0.569-2.548,0.078-3.752c-0.424-1.039-0.743-1.486-1.349-2.202c-0.17-0.201-0.439-0.232-0.629-0.071
						C284.531,270.205,279.855,272.526,274.42,269.508z"/>
				</g>
				<g>
					<path style="fill:#A33646;" d="M276.8,264.824c0.303-1.658,1.362-2.947,2.55-3.874c1.317-1.028,2.798-1.841,4.429-2.014
						c-0.228-0.617-0.798-0.975-1.338-1.246c-1.34-0.672-2.858-1.203-4.322-0.865c-1.665,0.385-3.728,1.897-4.852,4.18
						c-0.56,0.763,0.05,0.855,0.35,1.816"/>
				</g>
				<g>
					<path style="fill:#E54A52;" d="M273.267,261.005c-0.941,1.084-0.891,3.398-0.245,4.925c2.613,4.095,11.279,3.077,13.897,0.41
						c0.657-1.057,0.569-2.548,0.078-3.752c-0.424-1.039-0.743-1.486-1.349-2.203c-0.17-0.201-0.439-0.232-0.629-0.071
						C283.379,261.702,278.702,264.023,273.267,261.005z"/>
				</g>
				<g>
					<path style="fill:#A33646;" d="M275.647,256.321c0.303-1.658,1.362-2.947,2.55-3.874c1.317-1.028,2.798-1.841,4.429-2.014
						c-0.228-0.617-0.798-0.975-1.338-1.246c-1.34-0.672-2.858-1.203-4.322-0.865c-1.665,0.385-3.728,1.897-4.852,4.18
						c-0.56,0.763,0.05,0.855,0.35,1.816"/>
				</g>
				<g>
					<path style="fill:#E54A52;" d="M272.114,252.502c-0.941,1.084-0.891,3.398-0.245,4.925c2.613,4.095,11.279,3.077,13.897,0.41
						c0.657-1.057,0.569-2.548,0.078-3.752c-0.424-1.039-0.743-1.486-1.349-2.202c-0.17-0.201-0.439-0.232-0.629-0.071
						C282.226,253.199,277.549,255.52,272.114,252.502z"/>
				</g>
			</g>
			<g>
				<path style="fill:#FF8080;" d="M452.402,246.152V212.41h-25.298v26.614H322.896V212.41h-25.298v33.742
					c0,27.543-6.521,84.964-63.688,104.474c-5.855,1.998-9.746,7.561-9.746,13.747v60.708c0,7.135,5.784,12.919,12.918,12.919
					h275.837c7.135,0,12.919-5.784,12.919-12.919v-60.708c0-6.187-3.891-11.749-9.747-13.747
					C458.923,331.115,452.402,273.695,452.402,246.152z"/>
				<path style="opacity:0.25;fill:#E54A52;" d="M373,371.121c-57.721,0-107.383-3.204-148.676-8.879
					c-0.103,0.699-0.161,1.411-0.161,2.132v60.708c0,7.135,5.784,12.919,12.918,12.919h275.837c7.135,0,12.919-5.784,12.919-12.919
					v-60.708c0-0.913-0.094-1.809-0.258-2.685C483.522,367.706,432.557,371.121,373,371.121z"/>
				
					<line style="opacity:0.75;fill:none;stroke:#E54A52;stroke-width:11;stroke-miterlimit:10;" x1="297.598" y1="213.725" x2="322.896" y2="213.725"/>
				
					<line style="opacity:0.75;fill:none;stroke:#E54A52;stroke-width:11;stroke-miterlimit:10;" x1="427.104" y1="213.725" x2="452.402" y2="213.725"/>
				<path style="fill:#FF8080;" d="M201.019,217.205v38.197h83.428v-34.864c0-4.304,3.49-7.794,7.794-7.794h165.519
					c4.305,0,7.794,3.489,7.794,7.794v34.864h83.428v-38.197c0-31.409-25.462-56.871-56.871-56.871H257.89
					C226.481,160.333,201.019,185.796,201.019,217.205z"/>
				<path style="fill:#E54A52;" d="M282.345,259.997H203.12c-2.5,0-4.527-2.027-4.527-4.527v-26.395c0-2.5,2.027-4.527,4.527-4.527
					h79.225c2.5,0,4.527,2.027,4.527,4.527v26.395C286.872,257.97,284.845,259.997,282.345,259.997z"/>
				<path style="fill:#E54A52;" d="M546.88,259.997h-79.225c-2.5,0-4.527-2.027-4.527-4.527v-26.395c0-2.5,2.027-4.527,4.527-4.527
					h79.225c2.5,0,4.527,2.027,4.527,4.527v26.395C551.407,257.97,549.38,259.997,546.88,259.997z"/>
				<path style="opacity:0.75;fill:#E54A52;" d="M224.163,419.396v5.685c0,7.135,5.784,12.919,12.918,12.919h275.837
					c7.135,0,12.919-5.784,12.919-12.919v-5.685H224.163z"/>
				<path style="fill:#E54A52;" d="M375,261.599c-37.102,0-67.178,30.077-67.178,67.178c0,37.102,30.077,67.178,67.178,67.178
					s67.178-30.077,67.178-67.178C442.178,291.676,412.102,261.599,375,261.599z M375,346.659c-9.876,0-17.882-8.006-17.882-17.882
					c0-9.876,8.006-17.882,17.882-17.882s17.882,8.006,17.882,17.882C392.882,338.653,384.876,346.659,375,346.659z"/>
				<path style="fill:#FFFFFF;" d="M375,253.645c-37.102,0-67.178,30.077-67.178,67.178c0,37.101,30.077,67.178,67.178,67.178
					s67.178-30.077,67.178-67.178C442.178,283.721,412.102,253.645,375,253.645z M375,338.704c-9.876,0-17.882-8.006-17.882-17.882
					c0-9.876,8.006-17.882,17.882-17.882s17.882,8.006,17.882,17.882C392.882,330.698,384.876,338.704,375,338.704z"/>
				<path style="fill:#FF8080;" d="M398.41,284.685c-1.642,3.966-6.188,5.851-10.154,4.209s-5.851-6.188-4.21-10.154
					c1.642-3.966,6.188-5.851,10.154-4.209C398.167,276.172,400.051,280.718,398.41,284.685z M378.522,277.922
					c0.422,4.272-2.7,8.077-6.971,8.498c-4.272,0.422-8.076-2.7-8.498-6.971c-0.422-4.272,2.7-8.077,6.971-8.498
					C374.296,270.529,378.101,273.651,378.522,277.922z M357.795,281.331c2.385,3.569,1.425,8.396-2.144,10.781
					c-3.569,2.385-8.396,1.426-10.781-2.143c-2.385-3.569-1.426-8.396,2.143-10.781S355.41,277.762,357.795,281.331z
					 M341.121,294.106c3.786,2.024,5.214,6.733,3.191,10.518c-2.024,3.786-6.733,5.214-10.518,3.191
					c-3.786-2.024-5.214-6.733-3.191-10.519C332.626,293.511,337.335,292.083,341.121,294.106z M332.435,313.232
					c4.293,0.001,7.772,3.481,7.771,7.773c0,4.292-3.481,7.772-7.773,7.771c-4.292-0.001-7.772-3.481-7.771-7.773
					C324.663,316.711,328.143,313.232,332.435,313.232z M333.789,334.194c3.786-2.023,8.495-0.593,10.518,3.193
					c2.023,3.786,0.593,8.495-3.193,10.518c-3.786,2.023-8.495,0.593-10.518-3.193C328.574,340.926,330.003,336.217,333.789,334.194
					z M344.863,352.044c2.386-3.568,7.213-4.527,10.781-2.141c3.568,2.386,4.527,7.213,2.141,10.781
					c-2.386,3.568-7.213,4.527-10.781,2.141C343.435,360.439,342.477,355.612,344.863,352.044z M363.042,362.568
					c0.423-4.272,4.228-7.392,8.5-6.969c4.272,0.423,7.392,4.228,6.969,8.5c-0.423,4.272-4.228,7.392-8.5,6.969
					C365.74,370.645,362.62,366.84,363.042,362.568z M384.036,363.282c-1.641-3.967,0.245-8.512,4.212-10.153
					s8.512,0.245,10.153,4.212c1.641,3.967-0.245,8.512-4.212,10.153S385.676,367.249,384.036,363.282z M402.888,354.017
					c-3.316-2.725-3.796-7.623-1.07-10.94c2.725-3.316,7.623-3.796,10.939-1.07c3.316,2.725,3.796,7.623,1.07,10.94
					C411.102,356.263,406.204,356.743,402.888,354.017z"/>
				<path style="fill:#E54A52;" d="M324.784,322.338c-0.075-0.434-0.122-0.879-0.122-1.335c0.001-4.292,3.481-7.772,7.773-7.771
					c4.293,0,7.772,3.481,7.771,7.773c0,0.455-0.047,0.899-0.122,1.332c-0.633-3.656-3.812-6.438-7.649-6.439
					C328.598,315.899,325.418,318.682,324.784,322.338z M401.818,345.745c2.725-3.316,7.623-3.796,10.939-1.07
					c1.498,1.231,2.411,2.906,2.717,4.677c0.464-2.668-0.476-5.502-2.717-7.344c-3.316-2.725-8.214-2.246-10.939,1.07
					c-1.495,1.819-2.019,4.112-1.647,6.262C400.393,348.061,400.935,346.819,401.818,345.745z M344.307,337.388
					c-2.023-3.786-6.732-5.216-10.518-3.193c-3.041,1.624-4.557,4.981-3.99,8.202c0.395-2.279,1.792-4.36,3.99-5.535
					c3.786-2.023,8.495-0.593,10.518,3.193c0.398,0.745,0.658,1.527,0.797,2.316C345.389,340.724,345.155,338.975,344.307,337.388z
					 M355.644,349.903c-3.568-2.386-8.395-1.428-10.781,2.141c-1.154,1.726-1.519,3.746-1.191,5.643
					c0.181-1.034,0.57-2.047,1.191-2.976c2.386-3.568,7.213-4.527,10.781-2.141c1.842,1.232,2.982,3.115,3.332,5.138
					C359.491,354.77,358.284,351.669,355.644,349.903z M330.602,299.964c2.024-3.786,6.733-5.214,10.519-3.191
					c2.197,1.174,3.593,3.255,3.988,5.533c0.567-3.219-0.948-6.576-3.988-8.2c-3.786-2.024-8.495-0.595-10.519,3.191
					c-0.849,1.589-1.083,3.338-0.798,4.985C329.943,301.492,330.203,300.71,330.602,299.964z M394.2,274.531
					c-3.966-1.642-8.512,0.243-10.154,4.209c-0.584,1.412-0.714,2.895-0.47,4.297c0.097-0.548,0.249-1.094,0.47-1.63
					c1.642-3.966,6.188-5.851,10.154-4.209c2.555,1.057,4.238,3.321,4.68,5.857C399.499,279.544,397.631,275.951,394.2,274.531z
					 M388.248,353.129c-3.432,1.419-5.301,5.013-4.682,8.526c0.441-2.537,2.126-4.802,4.682-5.859
					c3.967-1.641,8.512,0.245,10.153,4.212c0.221,0.535,0.373,1.08,0.47,1.627c0.244-1.401,0.114-2.883-0.47-4.294
					C396.76,353.375,392.215,351.489,388.248,353.129z M371.542,355.599c-4.272-0.423-8.077,2.698-8.5,6.969
					c-0.071,0.72-0.034,1.424,0.085,2.104c0.687-3.978,4.335-6.81,8.415-6.406c3.552,0.352,6.3,3.044,6.885,6.396
					c0.032-0.186,0.066-0.372,0.085-0.563C378.934,359.827,375.814,356.021,371.542,355.599z M370.024,270.951
					c-4.272,0.422-7.393,4.226-6.971,8.498c0.019,0.192,0.052,0.378,0.085,0.565c0.585-3.353,3.334-6.046,6.887-6.397
					c4.08-0.403,7.726,2.429,8.413,6.406c0.118-0.679,0.156-1.382,0.085-2.102C378.101,273.651,374.296,270.529,370.024,270.951z
					 M347.014,279.188c-2.641,1.765-3.848,4.867-3.333,7.807c0.35-2.024,1.491-3.908,3.333-5.14
					c3.569-2.385,8.396-1.426,10.781,2.143c0.62,0.928,1.009,1.941,1.19,2.974c0.328-1.896-0.037-3.915-1.19-5.641
					C355.41,277.762,350.583,276.802,347.014,279.188z"/>
				<g>
					<path style="fill:#A33646;" d="M442.178,313.478l-30.917-1.329c0,0,0.013,1.412,0.013,2.056c0,0.433-0.011,0.9,0.292,1.177
						c1.857,1.697,5.311,4.082,10.862,5.218c9.133,1.869,19.75,1.335,19.75,1.335V313.478z"/>
					<path style="fill:#E54A52;" d="M442.178,311.81c0-0.505-0.41-0.915-0.915-0.915h-29.317c-0.702,0-0.977,1.359-0.38,1.904
						c1.857,1.697,5.311,4.082,10.862,5.218c9.133,1.868,19.75,1.335,19.75,1.335V311.81z"/>
				</g>
			</g>
		</g>
		<g>
			<g>
				<g>
					<path style="fill:#FFDACF;" d="M320.725,186.082c0,0,2.726,1.929,3.672,1.984c0.946,0.055,3.114-0.65,5.797-0.384
						c1.197,0.118,4.291,0.807,4.466,1.295c0.174,0.488-2.802,0.415-2.727,0.624c0.075,0.209,5.564,2.254,5.325,3.082
						c-0.121,0.418-5.437-1.577-5.437-1.577s5.798,2.021,5.463,2.661c-0.336,0.639-5.828-1.497-5.828-1.497s5.239,1.914,4.956,2.455
						c-0.284,0.541-5.404-0.823-5.404-0.823s4.457,0.974,4.216,1.505c-0.125,0.276-5.014-0.342-9.195-1.916
						c-3.867-1.455-7.057-3.864-7.057-3.864"/>
				</g>
				<g>
					<path style="fill:#FFDACF;" d="M323.561,154.427c-3.994,6.086-13.237,13.113-18.342,17.421
						c2.929,3.974,19.512,16.354,19.512,16.354l-1.539,3.69c0,0-31.603-5.669-32.609-21.276
						c-0.602-9.337,11.217-23.093,20.393-29.557"/>
				</g>
			</g>
			<path style="fill:#BFD7FA;" d="M316.663,136.726c-9.354,4.169-19.325,17.32-19.325,17.32l14.208,14.171l12.898-9.054
				l9.886-21.644l-1.117-2.395C333.213,135.124,325.716,132.691,316.663,136.726z"/>
			<polygon style="fill:#FFFFFF;" points="296.193,154.735 310.266,170.105 315.383,166.249 300.17,150.596 			"/>
			<line style="fill:none;stroke:#5481DB;stroke-miterlimit:10;" x1="320.865" y1="161.675" x2="326.271" y2="158.23"/>
		</g>
		<g>
			<g>
				<g>
					<g id="XMLID_55_">
						<path style="fill:#FFDACF;" d="M504.933,270.221c0,0-7.717,3.734-9.485,3.653c-1.768-0.081-2.829-0.88-5.647-1.639
							c-0.761-0.205-3.223-1.065-3.542-0.28c-0.208,0.512,2.134,1.064,1.904,1.628c-0.229,0.564-5.526,0.128-5.905,0.853
							c-0.379,0.725,4.992,0.661,4.992,0.661s-5.617,0.307-5.774,1.006c-0.157,0.699,5.571,0.288,5.571,0.288
							s-5.349,0.556-5.184,1.19c0.141,0.543,5.07,0.237,5.07,0.237s-4.247,0.649-3.943,1.304c0.21,0.451,3.826-0.07,5.376-0.129
							c1.666-0.064,3.219,1.443,6.93-0.004c0.349-0.065,10.229-0.814,10.229-0.814"/>
					</g>
					<path id="XMLID_36_" style="fill:none;stroke:#F7A794;stroke-miterlimit:10;" d="M489.002,274.199c0,0,1.546,2.674,3.762,2.498
						"/>
					<path style="fill:#FFDACF;" d="M545.789,240.881c-5.728,7.655-9.814,13.275-13.165,15.635
						c-5.721,4.03-37.177,17.359-37.177,17.359l-0.152,5.115c0,0,36.551,1.393,55.786-8.409c4.143-2.111,14.25-10.219,14.25-10.219"
						/>
				</g>
				<g>
					<g>
						<g>
							<path style="fill:#BFD7FA;" d="M597.102,210.475c0,0-19.124-5.101-35.168,10.342c-6.563,6.317-11.935,13.866-16.671,20.193
								l19.923,20.935c11.517-9.482,19.551-17.12,19.551-17.12"/>
						</g>
					</g>
				</g>
				<polygon style="fill:#FFFFFF;" points="544.31,241.665 564.108,262.764 569.098,258.971 548.132,236.564 				"/>
			</g>
			<g>
				<g>
					<g id="XMLID_41_">
						<g id="XMLID_43_">
							<path id="XMLID_46_" d="M640.648,444.477c2.148,2.975,2.047,7.891,0.69,8.389c-0.801,0.294-17.086,0.822-17.323-0.129
								c-1.173-4.694,12.274-7.431,12.274-7.431"/>
							<path id="XMLID_44_" style="fill:#FFDACF;" d="M629.487,426.173l4.652,19.653c0,0,1.411,0.764,3.759,0.741
								c2.348-0.022,3.364-1.17,3.364-1.17l-0.353-21.944"/>
						</g>
					</g>
				</g>
				<g>
					<g id="XMLID_45_">
						<g id="XMLID_48_">
							<path id="XMLID_51_" d="M580.315,444.477c2.148,2.975,2.047,7.891,0.69,8.389c-0.801,0.294-17.086,0.822-17.323-0.129
								c-1.173-4.694,12.274-7.431,12.274-7.431"/>
							<path id="XMLID_49_" style="fill:#FFDACF;" d="M572.81,426.173l0.996,19.653c0,0,1.411,0.764,3.759,0.741
								c2.348-0.022,3.364-1.17,3.364-1.17l3.304-21.944"/>
						</g>
					</g>
				</g>
				<path style="fill:#5481DB;" d="M571.563,294.225c-7.954,67.919,1.901,144.245,1.901,144.245l9.131,0.698
					c0,0,19.411-101.194,24.259-105.452c4.848-4.257,9.318-18.445,1.792-36.657"/>
				<path style="fill:none;stroke:#273B93;stroke-miterlimit:10;" d="M580.438,439.004c0,0,18.697-101.249,23.545-105.507
					c4.848-4.257,12.189-18.225,4.663-36.438"/>
				<path style="fill:none;stroke:#273B93;stroke-miterlimit:10;" d="M582.74,302.075c0,0-0.445,4.979-3.604,6.14
					c-4.031,1.482-8.634-0.043-8.634-0.043"/>
				<polygon style="fill:#273B93;" points="582.683,439.175 573.051,438.439 572.81,435.423 583.428,436.234 				"/>
				<path style="fill:#5481DB;" d="M596.777,297.109c11.126,83.027,35.852,142.107,35.852,142.107l9.102-1.002
					c0,0,9.099-138.056-8.164-150.658"/>
				<path style="fill:none;stroke:#273B93;stroke-miterlimit:10;" d="M604.521,343.343c0,0-5.848-31.816-7.766-49.234"/>
				<path style="fill:none;stroke:#273B93;stroke-miterlimit:10;" d="M593.209,301.389c0,0,2.377,13.08,3.34,13.852
					c1.689,1.354,3.45,1.072,3.45,1.072"/>
				<path style="fill:none;stroke:#273B93;stroke-miterlimit:10;" d="M640.618,437.299c0,0,4.554-138.226-11.198-149.286"/>
				<path style="fill:none;stroke:#273B93;stroke-miterlimit:10;" d="M618.247,303.299c0,0,0.645,4.958,5.46,5.834
					c6.145,1.118,13.102-0.271,13.102-0.271"/>
				<polygon style="fill:#273B93;" points="641.732,438.214 632.13,439.272 631.335,436.352 641.92,435.186 				"/>
			</g>
			<path style="fill:#BFD7FA;" d="M632.085,224.692c8.14,17.037,16.007,70.422,10.705,75.725c-8.688,8.688-64.771,8.887-73.658,0
				c-1.893-1.893-1.073-14.838,0.031-26.972c1.862-20.457,3.39-40.852,3.39-40.852s14.611-24.655,26.988-24.655
				S632.085,224.692,632.085,224.692z"/>
			<path style="fill:none;stroke:#5481DB;stroke-miterlimit:10;" d="M570.559,257.472c0,0,1.839-18.801,0.466-24.518"/>
			<g>
				<g>
					<g id="XMLID_40_">
						<path style="fill:#FFDACF;" d="M680.956,200.382c0,0,2.046-7.262,2.131-9.03c0.084-1.768-0.613-2.898-1.106-5.775
							c-0.133-0.777-0.76-3.308,0.051-3.553c0.529-0.16,0.861,2.224,1.443,2.048c0.583-0.176,0.642-5.49,1.399-5.8
							c0.757-0.31,0.193,5.032,0.193,5.032s0.829-5.564,1.539-5.655c0.71-0.092-0.232,5.573-0.232,5.573s1.052-5.274,1.668-5.05
							c0.527,0.191-0.236,5.07-0.236,5.07s1.042-4.168,1.665-3.804c0.43,0.251-0.426,3.803-0.629,5.34
							c-0.219,1.653,1.137,3.34-0.65,6.9c-0.097,0.341-3.096,10.841-3.096,10.841"/>
					</g>
					<path style="fill:#FFDACF;" d="M645.825,217.156c6.435,2.849,14.807,4.741,17.005,3.605
						c6.631-3.429,20.217-29.004,20.217-29.004l5.146-0.08c0,0-3.975,46.112-20.103,56.164c-6.882,4.289-21.787,3.765-28.834,0.96"
						/>
					<path id="XMLID_32_" style="fill:none;stroke:#F7A794;stroke-miterlimit:10;" d="M684.01,184.964c0,0,2.518,1.788,2.137,3.978"
						/>
				</g>
				<path style="fill:#BFD7FA;" d="M602.605,210.855c8.901-2.176,22.16-3.156,36.511,3.284c2.361,1.059,12.055,5.049,14.151,5.977
					l-4.357,30.868c-13.222-1.132-23.013-4.809-23.013-4.809"/>
				<line style="fill:none;stroke:#5481DB;stroke-miterlimit:10;" x1="639.256" y1="249.664" x2="625.898" y2="246.175"/>
				<polygon style="fill:#FFFFFF;" points="647.451,252.239 648.572,217.756 656.545,219.003 653.909,252.761 				"/>
			</g>
			<g>
				<path style="fill:#FF8080;" d="M585.272,191.148c0.132,2.152,1.853,3.797,3.844,3.675c1.991-0.122,3.499-1.965,3.367-4.117
					c-0.132-2.151-1.853-3.797-3.844-3.675C586.648,187.154,585.14,188.997,585.272,191.148z"/>
				<path style="fill:#FFB0B0;" d="M587.009,191.205c0.09,1.475,1.218,2.606,2.52,2.526c1.301-0.08,2.283-1.34,2.193-2.815
					c-0.09-1.475-1.218-2.606-2.52-2.526C587.901,188.47,586.919,189.73,587.009,191.205z"/>
				<g>
					<path d="M590.887,179.055c-2.513,0.859-3.276,7.524-2.429,9.79c0.488,1.307,1.644,2.296,3.033,2.17
						c1.39-0.126,2.626-1.259,2.872-2.633"/>
				</g>
				<g>
					<path style="fill:#FCCABE;" d="M588.973,190.139c0.444-0.297,0.971-0.475,1.477-0.399c2.06,0.307,1.37,6.131-0.139,5.978
						C587.739,195.456,586.887,191.534,588.973,190.139z"/>
				</g>
				<path style="fill:#FFDACF;" d="M593.72,198.891l-1.209,10.47c0,0,0.875,7.812,5.213,7.991
					c7.274,0.299,13.667-8.783,13.667-8.783l-5.688-15.592"/>
				<line style="fill:none;stroke:#5481DB;stroke-miterlimit:10;" x1="597.724" y1="217.352" x2="595.707" y2="239.565"/>
				<path style="fill:#FFFFFF;" d="M610.307,205.596c0,0-7.37,9.876-12.583,11.756l4.227,6.16
					c6.349-1.946,11.732-14.55,11.732-14.55L610.307,205.596z"/>
				<path style="fill:#FFFFFF;" d="M592.767,207.144c0,0,1.472,7.709,4.957,10.208l-3.484,5.83
					c-3.464-1.945-4.37-13.368-4.37-13.368L592.767,207.144z"/>
				<path style="fill:#5481DB;" d="M599.794,223.511c0,0.353-0.286,0.639-0.639,0.639c-0.353,0-0.639-0.286-0.639-0.639
					c0-0.353,0.286-0.639,0.639-0.639C599.508,222.872,599.794,223.158,599.794,223.511z"/>
				<path style="fill:#5481DB;" d="M599.347,230.679c0,0.353-0.286,0.639-0.639,0.639c-0.353,0-0.639-0.286-0.639-0.639
					c0-0.353,0.286-0.639,0.639-0.639C599.061,230.04,599.347,230.326,599.347,230.679z"/>
				<path style="fill:#5481DB;" d="M598.709,238.428c0,0.353-0.286,0.639-0.639,0.639s-0.639-0.286-0.639-0.639
					c0-0.353,0.286-0.639,0.639-0.639S598.709,238.075,598.709,238.428z"/>
				<path style="fill:#FFDACF;" d="M590.981,181.234c0,0-2.664,11.73-0.094,16.696c2.867,5.54,9.419,4.216,12.32,1.751
					c3.326-2.826,3.224-9.934,3.224-12.141C606.431,181.549,594.134,178.081,590.981,181.234z"/>
				<path style="fill:none;stroke:#F7A794;stroke-linejoin:round;stroke-miterlimit:10;" d="M596.763,188.215
					c0,0-1.279,3.363-1.204,4.128c0.074,0.765,2.411,0.917,2.411,0.917"/>
				<path d="M600.932,188.862c-0.052,0.465,0.19,0.874,0.542,0.913c0.352,0.039,0.679-0.305,0.731-0.77
					c0.052-0.465-0.19-0.874-0.542-0.913C601.312,188.052,600.984,188.397,600.932,188.862z"/>
				<path d="M591.251,188.549c-0.052,0.465,0.19,0.874,0.542,0.913c0.352,0.04,0.679-0.305,0.731-0.77
					c0.052-0.465-0.19-0.874-0.542-0.913C591.631,187.74,591.303,188.084,591.251,188.549z"/>
				<path style="fill:none;stroke:#000000;stroke-miterlimit:10;" d="M599.773,186.533c1.003-0.644,3.181-0.03,4.263,0.725"/>
				<path style="fill:none;stroke:#000000;stroke-miterlimit:10;" d="M590.887,185.934c0,0,1.372-0.289,2.744,0.599"/>
				<path style="fill:#FFFFFF;" d="M600.785,196.009l-6.433-0.288c0,0-0.133,3.156,2.788,3.156
					C601.038,198.876,600.785,196.009,600.785,196.009z"/>
				<path style="fill:none;stroke:#F7A794;stroke-miterlimit:10;" d="M593.441,201.304c3.274,0.834,7.59,0.773,9.766-1.076
					c1.247-1.06,2.012-3.269,2.481-5.048"/>
				<g>
					<path style="fill:#FFDACF;" d="M608.142,191.097c-0.355-0.4-0.82-0.704-1.328-0.759c-2.07-0.223-2.873,5.587-1.374,5.819
						C607.995,196.553,609.809,192.973,608.142,191.097z"/>
				</g>
				<g>
					<path d="M610.392,189.231c0.16-0.771,0.227-1.566,0.252-2.286c0.099-2.952-0.031-6.203-1.68-8.766
						c-2.012-3.127-5.787-4.289-9.288-4.706c-3.368-0.401-6.891,1.075-9.043,3.79c-1.032,1.302-1.77,2.923-1.754,4.608
						c0.003,0.379,0.051,0.776,0.265,1.083c0.487,0.7,1.65,0.624,2.4,0.711c0.996,0.115,2.137-0.361,2.962-0.905
						c1.667,1.472,4.277,1.653,6.119,0.425c-0.05,0.538,0.403,1.005,0.898,1.177c0.494,0.171,1.03,0.131,1.55,0.165
						c0.52,0.034,1.079,0.171,1.408,0.591c0.304,0.388,0.341,0.925,0.364,1.425c0.04,0.867,0.081,1.734,0.122,2.601
						c0.055,1.167,0.177,2.48,1.052,3.217c1.076,0.905,2.646,0.284,3.396-0.736C609.908,190.952,610.21,190.107,610.392,189.231z"/>
				</g>
				<g>
					<g>
						<g>
							<path style="fill:#081466;" d="M603.665,197.551c0.295-0.039,0.59-0.096,0.879-0.18c0.665-0.193,1.585-0.616,2.193-1.538
								c0.219-0.333,0.324-0.64,0.321-0.939c-0.001-0.075-0.063-0.136-0.138-0.135c-0.077,0.002-0.136,0.063-0.135,0.138
								c0.003,0.244-0.088,0.501-0.276,0.787c-0.562,0.853-1.42,1.246-2.041,1.426c-0.833,0.241-1.732,0.253-2.51,0.244
								c-0.075-0.002-0.137,0.06-0.138,0.135c-0.001,0.075,0.06,0.137,0.135,0.138C602.486,197.632,603.074,197.628,603.665,197.551
								z"/>
						</g>
						<g>
							<path style="fill:#081466;" d="M601.323,197.175c0.222-0.133,0.515-0.141,0.766-0.074c0.878,0.237-0.013,1.379-0.821,0.846
								c-0.067-0.044-0.126-0.098-0.165-0.162C600.981,197.583,601.101,197.307,601.323,197.175z"/>
						</g>
					</g>
					<path style="fill:#FF8080;" d="M604.243,191.548c-0.131,2.152,1.377,3.994,3.369,4.115c1.991,0.121,3.712-1.525,3.843-3.677
						c0.131-2.152-1.378-3.994-3.369-4.115C606.095,187.75,604.374,189.396,604.243,191.548z"/>
					<path style="fill:#FFB0B0;" d="M605.961,191.816c-0.09,1.475,0.893,2.735,2.194,2.814c1.301,0.079,2.429-1.052,2.519-2.527
						c0.09-1.475-0.893-2.735-2.194-2.814C607.178,189.21,606.051,190.341,605.961,191.816z"/>
				</g>
				<g>
					<g>
						<g>
							<path style="fill:#FF8080;" d="M609.361,189.411c-0.01,0-0.021-0.001-0.032-0.001c-0.312-0.018-0.55-0.285-0.533-0.597
								c0.287-5.031-1.54-9.001-5.144-11.18c-3.442-2.082-8.07-2.093-11.516-0.027c-1.872,1.124-4.324,3.442-3.983,10.581
								c0.015,0.312-0.226,0.577-0.538,0.592c-0.304,0.015-0.577-0.226-0.591-0.538c-0.277-5.815,1.205-9.611,4.532-11.606
								c3.854-2.311,8.831-2.299,12.683,0.028c3.98,2.407,6,6.744,5.688,12.213C609.909,189.178,609.659,189.411,609.361,189.411z"
								/>
						</g>
					</g>
				</g>
			</g>
			<g>
				<path style="fill:#FFFFFF;stroke:#BFD7FA;stroke-linejoin:round;stroke-miterlimit:10;" d="M648.609,124.13
					c-13.402-2.261-26.099,6.771-28.36,20.173c-1.394,8.261,1.513,16.245,7.079,21.691l-3.322,6.746l7.457-3.483
					c2.658,1.664,5.674,2.852,8.959,3.406c13.402,2.261,26.099-6.771,28.36-20.173C671.042,139.088,662.011,126.391,648.609,124.13z
					"/>
				<path style="fill:#BFD7FA;" d="M632.307,161.239l-2.831-3.393c-1.091-1.308-0.915-3.252,0.392-4.344l3.26-2.72
					c1.308-1.091,3.252-0.915,4.344,0.392c0,0,1.506,2.263,3.273,1.859c2.01-0.46,6.381-3.65,8.734-6.123
					c1.657-1.741-1.129-4.812-1.129-4.812c-1.091-1.308-0.916-3.252,0.392-4.344l3.26-2.72c1.308-1.091,3.253-0.916,4.344,0.392
					l2.831,3.393C665.556,146.468,637.867,167.902,632.307,161.239z"/>
			</g>
		</g>
		<g>
			<g>
				<g>
					<g id="XMLID_47_">
						<g id="XMLID_54_">
							<path id="XMLID_58_" d="M194.62,444.921c2.039,2.825,1.944,7.493,0.655,7.966c-0.761,0.279-16.224,0.78-16.45-0.123
								c-1.114-4.457,11.655-7.056,11.655-7.056"/>
							<path id="XMLID_56_" style="fill:#FFDACF;" d="M182.058,427.54l6.382,18.662c0,0,1.34,0.725,3.569,0.704
								c2.23-0.021,3.194-1.111,3.194-1.111l-2.299-20.837"/>
						</g>
					</g>
				</g>
				<g>
					<g id="XMLID_5_">
						<g id="XMLID_39_">
							<path id="XMLID_50_" d="M133.818,444.921c2.04,2.825,1.944,7.493,0.655,7.966c-0.761,0.279-16.224,0.78-16.45-0.123
								c-1.114-4.457,11.655-7.056,11.655-7.056"/>
							<path id="XMLID_42_" style="fill:#FFDACF;" d="M124.542,427.54l3.095,18.662c0,0,1.34,0.725,3.569,0.704
								c2.229-0.021,3.194-1.111,3.194-1.111l0.988-20.837"/>
						</g>
					</g>
				</g>
				<path style="fill:#5481DB;" d="M158.076,283.743c5.531,48.664-16.176,115.373-21.55,153.943h-12.18
					c0,0-5.023-30.858-5.353-76.323c-0.358-49.33,3.43-66.43,3.43-66.43l0.11-5.373"/>
				<path style="fill:#5481DB;" d="M140.547,284.97c5.718,72.139,44.217,152.786,44.217,152.786h10.066
					c0,0-2.867-54.411-12.24-105.279c1.453-14.2,0.383-25.312-7.82-37.839l-0.617-5.008"/>
				<g>
					<path style="fill:none;stroke:#273B93;stroke-miterlimit:10;" d="M122.423,294.934c0,0,25.627,2.594,51.996-0.366"/>
					<path style="fill:none;stroke:#273B93;stroke-miterlimit:10;" d="M145.256,289.56H141.2c-0.549,0-0.99,0.511-0.973,1.128
						l0.117,4.238c0.016,0.591,0.447,1.06,0.973,1.06h3.939"/>
					<path style="fill:none;stroke:#273B93;stroke-miterlimit:10;" d="M160.639,295.671c0,0,0.177-3.454-0.338-6.11"/>
					<path style="fill:none;stroke:#273B93;stroke-miterlimit:10;" d="M130.766,295.671c0,0-0.155-3.454,0.296-6.11"/>
					<ellipse style="fill:#FFFFFF;" cx="143.105" cy="292.713" rx="0.992" ry="1.075"/>
					<path style="fill:none;stroke:#273B93;stroke-miterlimit:10;" d="M163.249,295.671c0,0,1.371,4.528,4.089,4.528
						c2.718,0,7.081,0,7.081,0"/>
					<path style="fill:none;stroke:#273B93;stroke-miterlimit:10;" d="M172.296,294.794c0,0,7.436,14.269,6.166,35.043
						c-0.08,1.317-0.011,2.632,0.247,3.926c8.018,40.107,13.914,103.923,13.914,103.923"/>
					<path style="fill:none;stroke:#273B93;stroke-miterlimit:10;" d="M152.73,351.386c0,0-7.57-27.796-9.989-39.618"/>
					<path style="fill:none;stroke:#273B93;stroke-miterlimit:10;" d="M122.02,300.198c0,0,7.386,1.335,8.721,0
						c1.335-1.335,2.238-4.528,2.238-4.528"/>
					<path style="fill:none;stroke:#273B93;stroke-miterlimit:10;" d="M135.128,437.686c3.843-30.236,8.969-61.168,16.103-91.869"/>
				</g>
				<polygon style="fill:#273B93;" points="136.943,439.862 124.379,439.476 123.902,435.595 137.097,436.02 				"/>
				<polygon style="fill:#273B93;" points="195.639,439.322 184.161,440.03 183.378,436.206 195.434,435.482 				"/>
			</g>
			<g>
				<polyline style="fill:#FFDACF;" points="98.657,222.316 96.739,197.949 91.812,196.93 84.507,226.823 				"/>
				<path style="fill:#BFD7FA;" d="M140.37,209.535c0,0-6.894-1.353-16.802,2.047c-11.282,3.871-23.031,13.762-23.031,13.762
					l-1.586-15.622l-9.469-3.895c0,0-14.2,35.727-1.699,42.996c14.951,8.693,51.143-4.06,51.143-4.06"/>
				<line style="fill:none;stroke:#5481DB;stroke-miterlimit:10;" x1="100.538" y1="225.344" x2="101.612" y2="235.874"/>
				<polygon style="fill:#FFFFFF;" points="100.394,214.817 86.23,211.87 88.07,204.628 101.035,208.726 				"/>
				<g>
					<path style="fill:#FFDACF;" d="M96.577,202.361l0.162-4.412c0,0,1.671-1.646,2.974-4.031c0.581-1.064,1.673-4.053,1.25-4.499
						c-0.423-0.447-2.108,2.062-2.289,1.871c-0.181-0.192,0.866-6.003-0.167-6.318c-0.523-0.159-1.522,5.479-1.522,5.479
						s1.257-6.053,0.369-6.172c-0.888-0.118-1.84,5.753-1.84,5.753s1.041-5.524,0.29-5.624c-0.751-0.1-1.64,5.333-1.64,5.333
						s0.695-4.87,0.201-4.771c-0.753,0.151-1.731,3.312-2.414,8.047c-0.119,0.821-0.082,3.699-0.113,3.918
						c-0.032,0.219-0.871,5.073-0.871,5.073"/>
					<g>
						<g>
							<path style="fill:#F7A794;" d="M98.076,191.598c-2.287,1.005-4.448,2.268-4.224,5.091c0.015,0.194,0.274,0.188,0.297,0
								c0.147-1.229,0.404-2.313,1.371-3.169c0.786-0.696,1.763-1.209,2.686-1.699C98.356,191.741,98.224,191.533,98.076,191.598
								L98.076,191.598z"/>
						</g>
					</g>
				</g>
			</g>
			<g>
				<path d="M142.674,192.917c-2.138-1.742-1.813-5.334-1.374-7.956c0.611-3.65,1.956-7.237,4.821-8.97
					c4.41-2.667,10.219-1.292,13.168,2.889c5.059,2.407,3.843,10.526,2.584,14.256c-1.764,5.228-4.924,6.864-8.048,6.239"/>
			</g>
			<path style="fill:#BFD7FA;" d="M182.835,227.013c4.953,12.639-6.782,61.029-9.033,62.547c-2.589,1.747-48.624,2.645-51.269,0
				c-1.085-1.085-0.34-2.399-0.11-7.324c0.352-7.528,0.473-22.522-1.377-50.431c0.487-14.073,14.555-24.278,26.308-24.278
				C159.107,207.528,182.835,227.013,182.835,227.013z"/>
			<line style="fill:none;stroke:#5481DB;stroke-miterlimit:10;" x1="122.02" y1="249.426" x2="121.047" y2="231.805"/>
			<g>
				<g id="XMLID_63_">
					<path style="fill:#FFDACF;" d="M235.705,270.502c0,0,5.823,4.351,7.381,4.983c1.466,0.16,2.829,0.129,5.561,0.592
						c0.738,0.125,3.203,0.36,3.167,1.164c-0.023,0.525-2.263,0.072-2.289,0.649c-0.026,0.578,4.717,2.302,4.757,3.078
						c0.04,0.776-4.569-1.409-4.569-1.409s4.724,2.492,4.583,3.158s-4.921-1.961-4.921-1.961s4.395,2.601,4.001,3.083
						c-0.337,0.412-4.468-1.806-4.468-1.806s3.407,2.244,2.884,2.689c-0.36,0.306-3.273-1.577-4.587-2.243
						c-1.412-0.716-3.35-0.032-5.977-2.752c-0.275-0.195-9.188-2.594-9.188-2.594"/>
				</g>
				<path id="XMLID_62_" style="fill:none;stroke:#F7A794;stroke-miterlimit:10;" d="M248.557,278.087c0,0-2.394,1.694-4.236,0.663"
					/>
				<path style="fill:#FFDACF;" d="M192.418,231.765c0,0,16.392,17.037,19.157,19.774c4.722,4.674,31.51,23.946,31.51,23.946
					l-1.858,4.24c0,0-28.864-3.438-48.375-15.035c-5.339-3.174-17.544-15.243-17.544-15.243"/>
				<path style="fill:#BFD7FA;" d="M153.263,207.233c8.2,1.431,22.15,2.474,32.613,12.432c9.951,9.471,15.282,17.775,24.51,28.702
					c7.478,8.855,16.338,14.258,16.338,14.258l-9.096,12.806c0,0-20.441-6.231-26.674-10.891
					c-6.233-4.66-22.269-19.688-22.269-19.688"/>
				<line style="fill:none;stroke:#5481DB;stroke-miterlimit:10;" x1="181.515" y1="256.524" x2="168.684" y2="244.852"/>
				<polygon style="fill:#FFFFFF;" points="215.094,275.637 223.847,260.093 229.947,264.534 220.605,278.317 				"/>
			</g>
			<path style="fill:#FFDACF;" d="M144.989,189.846l-4.309,19.033c0,0,0.831,7.418,4.95,7.588c6.907,0.284,12.8-8.098,12.8-8.098
				l-2.869-15.048"/>
			<line style="fill:none;stroke:#5481DB;stroke-miterlimit:10;" x1="145.629" y1="216.467" x2="143.714" y2="237.56"/>
			<path style="fill:#FFFFFF;" d="M157.756,204.835c0,0-7.176,9.847-12.126,11.632l4.014,5.849
				c6.029-1.847,11.141-13.816,11.141-13.816L157.756,204.835z"/>
			<path style="fill:#FFFFFF;" d="M140.923,206.774c0,0,1.398,7.32,4.707,9.693l-3.309,5.536c-3.289-1.847-4.15-12.694-4.15-12.694
				L140.923,206.774z"/>
			<path style="fill:#5481DB;" d="M147.595,222.316c0,0.335-0.272,0.607-0.607,0.607c-0.335,0-0.607-0.272-0.607-0.607
				c0-0.335,0.272-0.607,0.607-0.607C147.323,221.709,147.595,221.981,147.595,222.316z"/>
			<path style="fill:#5481DB;" d="M147.171,229.122c0,0.335-0.272,0.607-0.607,0.607c-0.335,0-0.607-0.272-0.607-0.607
				c0-0.335,0.272-0.607,0.607-0.607C146.899,228.515,147.171,228.787,147.171,229.122z"/>
			<path style="fill:#5481DB;" d="M146.564,236.48c0,0.335-0.272,0.607-0.607,0.607s-0.607-0.271-0.607-0.607
				s0.271-0.607,0.607-0.607S146.564,236.145,146.564,236.48z"/>
			<path style="fill:#FFDACF;" d="M142.417,180.365c0,0-4.717,12.772-3.165,17.85c1.182,3.868,7.8,4.104,10.961,2.35
				c3.623-2.011,5.002-9.393,5.413-11.448C156.743,183.538,145.94,178.017,142.417,180.365z"/>
			<path d="M143.924,188.506c-0.14,0.439,0.015,0.88,0.347,0.986c0.332,0.106,0.714-0.164,0.854-0.602s-0.015-0.88-0.347-0.986
				C144.447,187.798,144.064,188.067,143.924,188.506z"/>
			<g>
				<path d="M153.633,190.562c0.011,0.881,0.04,1.759,0.273,2.601c0.093,0.335,0.223,0.67,0.459,0.925
					c0.453,0.49,1.228,0.581,1.857,0.358c0.629-0.224,3.436-5.659,1.699-10.33c-1.16-3.119-2.847-5.107-6.022-6.107
					c-1.798-0.566-3.712-0.751-5.59-0.738c-1.661,0.011-3.209,0.819-4.915,0.777c-0.745-0.018-1.489-0.162-2.23-0.088
					c-0.741,0.074-1.517,0.426-1.825,1.104c-0.488,1.077,0.421,2.273,1.392,2.948c1.752,1.218,3.94,1.792,6.064,1.593
					c1.232-0.116,2.435-0.481,3.672-0.523c0.102,0.593-1.012,0.803-0.982,1.404c0.014,0.284,0.289,0.476,0.546,0.598
					c0.932,0.441,1.926,0.277,2.928,0.378c0.631,0.064,1.282,0.25,1.726,0.703c0.266,0.272,0.44,0.621,0.567,0.98
					c1.125,3.177-0.011,7.289,0.036,10.598c0.008,0.594,0.069,1.271,0.541,1.633c0.385,0.295,0.927,0.277,1.395,0.149
					c1.365-0.373,6.283-0.331,7.155-9.372"/>
			</g>
			<path style="fill:none;stroke:#000000;stroke-miterlimit:10;" d="M143.518,185.933c1.221-0.229,2.506-0.111,3.665,0.337"/>
			<path style="fill:#FFDACF;" d="M140.729,186.946c0,0-4.374,3.244-3.454,4.199c0.921,0.955,2.752,1.601,2.752,1.601"/>
			<g>
				<g>
					<g>
						<path style="fill:#081466;" d="M149.567,197.913c0.282-0.005,0.566-0.027,0.848-0.076c0.648-0.111,1.562-0.412,2.234-1.216
							c0.242-0.29,0.374-0.569,0.404-0.852c0.007-0.071-0.044-0.135-0.115-0.142c-0.073-0.007-0.135,0.045-0.142,0.116
							c-0.024,0.23-0.137,0.463-0.345,0.713c-0.622,0.744-1.473,1.024-2.079,1.127c-0.812,0.138-1.662,0.053-2.395-0.038
							c-0.071-0.01-0.136,0.042-0.145,0.113c-0.009,0.071,0.041,0.136,0.112,0.145C148.446,197.863,149.001,197.923,149.567,197.913
							z"/>
					</g>
					<g>
						<path style="fill:#081466;" d="M147.398,197.307c0.224-0.102,0.501-0.078,0.73,0.013c0.803,0.318-0.161,1.3-0.865,0.711
							c-0.058-0.049-0.109-0.105-0.138-0.171C147.031,197.656,147.174,197.408,147.398,197.307z"/>
					</g>
				</g>
				<path style="fill:#FF8080;" d="M150.308,192.233c-0.401,2.283,0.987,4.435,3.1,4.807c2.113,0.371,4.152-1.179,4.553-3.462
					s-0.987-4.435-3.1-4.807C152.747,188.399,150.709,189.949,150.308,192.233z"/>
				<path style="fill:#FFB0B0;" d="M152.348,192.748c-0.243,1.382,0.549,2.676,1.768,2.89c1.219,0.214,2.405-0.732,2.647-2.115
					c0.243-1.382-0.549-2.676-1.768-2.89C153.776,190.42,152.591,191.366,152.348,192.748z"/>
			</g>
			<path style="fill:#FFFFFF;" d="M145.443,195.3l-5.293-1.404c0,0-0.667,2.918,1.759,3.434
				C145.148,198.018,145.443,195.3,145.443,195.3z"/>
			<g>
				<g>
					<path style="fill:#FF8080;" d="M155.478,190.311c-0.007-0.001-0.015-0.003-0.023-0.005c-0.223-0.052-0.357-0.329-0.299-0.62
						c0.941-4.688,0.198-8.618-2.093-11.068c-2.188-2.341-5.574-2.997-8.332-1.32c-0.186,0.113-0.363,0.236-0.531,0.365
						l-1.221,0.219c0.427-0.577,0.98-1.116,1.696-1.513c3.127-1.735,6.504-1.212,8.952,1.406c2.53,2.706,3.36,7.003,2.336,12.099
						C155.909,190.154,155.694,190.344,155.478,190.311z"/>
				</g>
			</g>
			<path style="fill:none;stroke:#F7A794;stroke-miterlimit:10;" d="M142.434,201.129c0,0,7.285,2.881,10.277-3.215"/>
			<g>
				<g>
					<path style="fill:#FFFFFF;stroke:#BFD7FA;stroke-linejoin:round;stroke-miterlimit:10;" d="M62.738,134.197
						c10.877-6.738,25.157-3.383,31.895,7.493c4.154,6.704,4.46,14.697,1.546,21.425l5.296,4.698l-7.739-0.383
						c-1.724,2.396-3.931,4.505-6.597,6.156c-10.877,6.738-25.157,3.383-31.895-7.493C48.506,155.215,51.861,140.935,62.738,134.197
						z"/>
				</g>
				<g>
					<path style="fill:#BFD7FA;" d="M80.6,165.886c0.009,1.007-0.59,1.919-1.655,2.155c-1.544,0.342-3.104,0.966-4.641,0.921
						c-3.562-0.103-5.111-2.206-4.346-5.682c0.6-2.726,1.749-6.67,2.384-9.389c0.702-3.004-0.375-3.963-3.365-3.124
						c-0.236,0.066-0.473,0.124-0.793,0.207c-0.007-1.101,0.315-1.777,1.43-2.115c2.217-0.671,3.799-0.926,4.782-1.025
						c3.571-0.359,5.207,1.978,4.339,5.934c-0.466,2.124-1.451,5.472-1.989,7.581c-0.258,1.015-0.489,2.054-0.559,3.094
						c-0.084,1.251,0.485,1.801,1.738,1.866c0.464,0.024,0.939-0.059,1.402-0.133C79.748,166.111,80.159,165.99,80.6,165.886z"/>
					<path style="fill:#BFD7FA;" d="M77.316,138.819c2.047-0.026,3.808,1.597,3.837,3.536c0.028,1.912-1.746,3.571-3.804,3.558
						c-2.02-0.014-3.744-1.596-3.784-3.473C73.525,140.524,75.265,138.844,77.316,138.819z"/>
				</g>
			</g>
		</g>
	</g>
</g>

</svg>
