<svg width="14" height="14" viewBox="0 0 14 14" fill="none" xmlns="http://www.w3.org/2000/svg">
<path d="M9.85444 11.9303V8.68156C9.85444 7.90689 9.83889 6.90978 8.77333 6.90978C7.693 6.90978 7.52811 7.75289 7.52811 8.62478V11.9303H5.45456V5.25H7.44567V6.16H7.47289C7.75133 5.63578 8.428 5.08122 9.43911 5.08122C11.5391 5.08122 11.928 6.46411 11.928 8.26311V11.9303H9.85444ZM3.11344 4.33611C2.95521 4.33632 2.79849 4.30529 2.65227 4.2448C2.50605 4.18432 2.37321 4.09557 2.26136 3.98365C2.1495 3.87173 2.06084 3.73882 2.00045 3.59257C1.94006 3.44631 1.90914 3.28957 1.90944 3.13133C1.9096 2.8932 1.98036 2.66047 2.11279 2.46256C2.24521 2.26465 2.43335 2.11045 2.65341 2.01946C2.87347 1.92848 3.11557 1.90479 3.3491 1.9514C3.58262 1.99801 3.79708 2.11281 3.96535 2.28131C4.13362 2.4498 4.24816 2.6644 4.29446 2.89799C4.34077 3.13157 4.31677 3.37364 4.2255 3.59358C4.13423 3.81352 3.97979 4.00146 3.7817 4.13363C3.58362 4.2658 3.35157 4.33626 3.11344 4.33611ZM2.07356 11.9303V5.25H4.15333V11.9303H2.07356ZM12.9656 0H1.03367C0.461222 0 0 0.451111 0 1.00878V12.9912C0 13.5489 0.462 14 1.03289 14H12.9624C13.5333 14 14 13.5489 14 12.9912V1.00878C14 0.451111 13.5333 0 12.9624 0H12.9656Z" fill="#18B0F0"/>
</svg>
